<svg height="205" width="155" xmlns="http://www.w3.org/2000/svg"><mask id="a" fill="#fff"><path d="M.497.445h21.032V17H.497z" fill-rule="evenodd"/></mask><mask id="b" fill="#fff"><path d="M.175.274H37.6V12.47H.175z" fill-rule="evenodd"/></mask><mask id="c" fill="#fff"><path d="M.251.461h28.612V5H.251z" fill-rule="evenodd"/></mask><mask id="d" fill="#fff"><path d="M.066.294h35.832v22.12H.066z" fill-rule="evenodd"/></mask><mask id="e" fill="#fff"><path d="M.08.39h29.406V20H.081z" fill-rule="evenodd"/></mask><g fill="none" fill-rule="evenodd"><g fill="#002f3c"><path d="M154.864 3.49C130.457-11.936 32.563 38.274 5.247 51.868c-3.64.732-4.364 6.08.182 5.16 39.48-18.858 78.721-40.345 121.665-50.1 8.404-1.545 17.037-3.662 25.549-1.724 1.059.18 2.086-.674 2.221-1.716"/><path d="M7.74.452C5.3.743.02-.268.53 3.597c2.042 3.264 7.446 1.43 10.781 2.192C9.716 8.93-1.42 16.154 7.342 17c4.692-1.722 8.902-4.649 13.237-7.118.89-.55 1.23-1.715.691-2.637-2.27-2.7-5.529 1.655-7.945 2.426.91-1.106 1.706-2.335 1.916-3.74 1.845-.084 5.148.828 5.3-1.909-.308-3.088-4.362-1.659-6.459-2.05C12.532.145 9.898.48 7.74.451" mask="url(#a)" transform="rotate(157 6.466 28.734)"/></g><path d="M77.55 74.378c-7.412 1.482-39.585 8.097-40.214 15.424.48.658 1.366.752 2.023.321 5.79-4.027 12.586-6.15 19.255-8.25a171.27 171.27 0 0119.242-4.797c1.74-.189 1.445-2.92-.306-2.698" fill="#002f3c"/><g fill="#2c2c2c"><path d="M36.115.276c-9.973.813-20.097 1.865-29.18 6.415C5.018 8.288-.485 8.628.24 11.758c.421.722 1.286.889 1.995.528C8.41 9.106 14.81 6.083 21.709 4.942c5.049-1.162 10.58-.678 15.463-2.098.936-.874.234-2.634-1.057-2.568" mask="url(#b)" transform="rotate(9 -527.468 375.66)"/><path d="M7.845 3.889c-.098.015-.196.028-.295.04l.295-.04m7.901-3.39C13.687.193-5.972 1.754 2.251 5c8.502-2.696 17.808-.78 26.226-1.417C31.276-.7 18.034.923 15.747.499" mask="url(#c)" transform="rotate(9 -696.033 377.252)"/></g><g fill="#002f3c"><path d="M141.505 202.062c.169.883-.45 1.918-1.402 2.017-1.208.122-2.413.25-3.62.373-1.218.119-2.447.258-3.671.277-.513.008-1.028.023-1.538.022-.522.005-1.054.042-1.57.005-.614-.043-1.227-.085-1.834-.13-.454-.033-.914-.034-1.362-.095-2.186-.302-4.373-.594-6.545-.974-1.1-.19-2.205-.349-3.286-.6-1.347-.314-2.69-.622-4.033-.93-2.182-.506-4.327-1.17-6.482-1.778-2.122-.6-4.221-1.267-6.328-1.912-3.959-1.211-7.876-2.583-11.79-3.944-1.878-.65-3.756-1.298-5.622-1.978-2.234-.813-4.488-1.584-6.707-2.437-4.184-1.6-8.378-3.176-12.565-4.768a2490.665 2490.665 0 01-25.184-9.744c-4.033-1.584-8.062-3.163-12.08-4.786a818.262 818.262 0 00-11.727-4.635c-2.416-.938-4.836-1.878-7.25-2.825-1.017-.4-1.582-1.51-1.207-2.54.372-1.024 1.528-1.537 2.559-1.171 4.455 1.562 8.892 3.192 13.326 4.83 3.8 1.403 7.547 2.952 11.327 4.43 8.571 3.35 17.134 6.726 25.687 10.113 8.173 3.239 16.365 6.42 24.596 9.499a441.819 441.819 0 0011.207 4.025c4.181 1.434 8.362 2.882 12.598 4.136 1.895.559 3.787 1.14 5.69 1.684.887.251 1.796.435 2.691.654l2.383.58c1.371.264 2.741.511 4.112.766 1.233.229 2.484.382 3.725.564.447.065.9.152 1.352.19.818.063 1.64.127 2.463.193 1.19.096 2.392.068 3.584.064 2.158-.123 4.307-.36 6.459-.578.325-.033.647.005.934.11.555.202.99.649 1.11 1.293"/><path d="M1.025 1.28c-1.203 1.221-1.353 3.528 0 4.73 2.704 2.392 5.632 4.501 8.531 6.639 3.022 2.226 6.285 4.15 9.596 5.91 2.004 1.064 4.107 1.958 6.275 2.61 2.145.644 4.368 1.003 6.588 1.234.974.1 2.084-.481 2.746-1.153a3.978 3.978 0 000-5.57c-.784-.795-1.679-1.041-2.746-1.155-.206-.02-.413-.04-.618-.063a31.575 31.575 0 01-6.444-1.783c-2.787-1.277-5.467-2.83-8.095-4.405-1.748-1.054-3.46-2.175-5.18-3.272C9.458 3.588 7.225 2.198 5.021.755a2.92 2.92 0 00-1.606-.46c-.88 0-1.77.356-2.39.986" mask="url(#d)" transform="scale(-1 1) rotate(-20 415.622 203.135)"/><path d="M25.738.717a1901.07 1901.07 0 00-8.297 4.733c-1.819 1.043-3.666 2.059-5.466 3.139-1.77 1.071-3.563 2.114-5.306 3.235-2.039 1.315-4.105 2.625-5.905 4.252-.944.844-.878 2.39 0 3.248.435.433 1.04.676 1.658.676.656 0 1.172-.267 1.66-.676.152-.13.307-.259.463-.387 3.186-2.279 6.606-4.21 9.985-6.198 1.79-1.053 3.614-2.054 5.42-3.083 2.769-1.572 5.535-3.144 8.306-4.71 1.176-.668 1.584-2.202.895-3.351C28.692.822 27.845.39 26.98.39c-.425 0-.855.106-1.243.327" mask="url(#e)" transform="scale(-1 1) rotate(-20 462.345 187.77)"/></g></g></svg>