<svg xmlns="http://www.w3.org/2000/svg" fill="#F9504E" width="290.639" height="297.62" version="1.0"><path d="M79.69 296.132c0-.857-4.623-1.488-10.891-1.488-17.045 0-33.593-6.028-33.706-12.277-.025-1.432-.639-2.604-1.363-2.604-3.808 0-6.725-8.798-7.77-23.433-1.044-14.612-1.308-15.503-6.334-21.374-4.984-5.823-11.365-17.42-11.365-20.653 0-.828-.99-1.505-2.198-1.505-3.207 0-7.44-7-5.628-9.308 2.284-2.908 3.413-11.192 2.028-14.874-.693-1.841-.933-5.54-.533-8.221.619-4.147 1.062-4.596 2.973-3.01 1.965 1.63 2.113 1.078 1.183-4.427-.708-4.192-.523-6.29.556-6.29.89 0 1.673 1.171 1.74 2.603.074 1.578.955.699 2.237-2.232 1.163-2.66 3.152-4.836 4.42-4.836 1.268 0 3.006-2.009 3.862-4.464 1.78-5.108 4.24-5.934 4.24-1.423 0 1.673.838 2.932 1.861 2.8 1.023-.133 4.204-.141 7.068-.019l5.209.224-4.092 3.602c-4.652 4.094-5.116 6.01-1.766 7.295 3.302 1.267.923 4.308-2.642 3.376-2.413-.63-2.805-.197-2.135 2.363.508 1.945-.103 3.81-1.612 4.913-2.777 2.03-3.802 17.554-1.677 25.4 1.043 3.85 1.853 4.517 4.809 3.952 2.631-.503 3.362-1.416 2.813-3.516-.519-1.984.033-2.836 1.837-2.836 1.769 0 2.355.857 1.866 2.728-.434 1.66.081 2.728 1.315 2.728 2.433 0 2.703-5.674.38-7.997-1.205-1.205-.805-2.099 1.488-3.326 1.725-.923 3.136-2.732 3.136-4.02 0-1.682.942-2.107 3.348-1.508 3.816.948 8.007-1.953 12.672-8.771 2.797-4.087 2.869-4.691.723-6.045-2.83-1.785-1.09-5.633 2.009-4.444 1.335.513 2.081-.22 2.081-2.042 0-3.048 2.556-5.423 4.135-3.843.529.528.16 2.243-.819 3.81-1.834 2.937-1.043 7.432 1.308 7.432.73 0 1.329 1.004 1.329 2.232 0 1.278-1.34 2.232-3.136 2.232-2.16 0-2.872.687-2.287 2.21.498 1.298-.356 2.854-2.073 3.772-1.607.86-2.92 2.623-2.92 3.917 0 1.575-.931 2.11-2.812 1.618-1.547-.404-3.723-.158-4.837.548-1.485.94-1.53 1.289-.164 1.305 1.023.013 1.86 1.028 1.86 2.255a2.239 2.239 0 01-2.232 2.232c-1.228 0-2.233-.78-2.233-1.736 0-.954-.398-1.337-.885-.85s-.434 2.942.118 5.456c.696 3.167 1.882 4.571 3.862 4.571 1.572 0 2.858 1.004 2.858 2.232 0 1.264 1.333 2.232 3.074 2.232 1.69 0 4.37.694 5.952 1.54 1.984 1.063 2.879 1.063 2.879 0 0-.846 1.339-1.54 2.976-1.54 1.968 0 2.976.992 2.976 2.93 0 2.042.703 2.66 2.321 2.039 1.55-.595 2.596.161 3.15 2.279.942 3.601 3.166 4.172 4.34 1.113.863-2.25-5.404-9.849-8.121-9.849-.93 0-1.69-1.004-1.69-2.232a2.239 2.239 0 012.232-2.232c1.228 0 2.232.69 2.232 1.535 0 .844 1.156 1.978 2.569 2.52s4.43 2.644 6.705 4.671c4.126 3.676 4.129 3.693 1.152 6.466-1.642 1.53-2.985 3.455-2.985 4.279 0 .906-2.062 1.11-5.225.517-3.196-.6-6.034-.309-7.308.749-2.27 1.884-4.71-.263-3.156-2.777 1.534-2.481-1.935-3.21-3.94-.828-5.806 6.9-8.645 8.624-8.645 5.247 0-.786-1.41-2.744-3.135-4.35-1.723-1.606-2.706-3.612-2.184-4.457 1.278-2.068 5.319-.387 5.319 2.212 0 3.805 5.557 2.324 6.324-1.684.582-3.045.229-3.602-1.862-2.938-1.42.45-4.32.157-6.445-.65-2.466-.938-4.184-.952-4.749-.039-1.343 2.174-5.173 1.71-5.173-.627 0-1.132-1.841-2.412-4.092-2.845-4.218-.81-7.027.33-3.72 1.511 1.023.366 1.86 1.557 1.86 2.649 0 3.659-3.688 3.368-7.168-.567l-3.448-3.898.942 12.65c.991 13.32 3.14 30.055 3.535 27.529.3-1.929 3.11 2.397 3.14 4.836.012 1.023-.982 1.86-2.21 1.86-1.227 0-2.222.838-2.209 1.86.03 2.414 2.513 6.325 4.015 6.325.644 0 .986 1.456.76 3.236-.226 1.78.276 3.662 1.116 4.18.84.52 1.527-.1 1.527-1.376 0-1.276.63-2.32 1.4-2.32 2.365 0 3.494 3.142 1.754 4.881-1.202 1.203-.776 2.571 1.58 5.08 3.32 3.532 7.17 4.577 7.17 1.944 0-.818 1.005-1.488 2.233-1.488 1.278 0 2.232 1.34 2.232 3.135 0 1.952.726 2.857 1.922 2.398 1.058-.406 3.195.192 4.749 1.329 3.699 2.705 6.722 2.63 6.722-.166 0-1.227.69-2.232 1.535-2.232.844 0 1.92 1.005 2.39 2.232 1.2 3.124 7.709 2.939 7.442-.211-.114-1.345.63-2.74 1.654-3.1 1.102-.39 1.86.605 1.86 2.443 0 2.43.934 3.1 4.325 3.1 3.592 0 4.193-.504 3.546-2.976-.54-2.07-.045-2.976 1.628-2.976 1.323 0 2.406.912 2.406 2.026 0 1.356 1.224 1.792 3.702 1.318 2.037-.39 3.365-1.255 2.952-1.923-1.236-2 2.4-3.379 4.19-1.589 2.4 2.401 6.55 2.03 7.59-.678.609-1.586 1.889-2.02 3.99-1.353 3.938 1.25 11.802-1.945 11.802-4.796 0-1.627 1.095-1.93 4.378-1.208 3.694.811 5.32.074 10.414-4.718 5.985-5.632 8.295-11.66 3.81-9.938-1.57.602-2.233-.121-2.233-2.438 0-2.318.662-3.041 2.232-2.439 1.54.591 2.232-.095 2.232-2.212a3.963 3.963 0 00-2.976-3.847c-3.726-.974-3.886-4.31-.252-5.26 2.274-.595 2.676-2.076 2.434-8.982-.244-6.964.149-8.384 2.49-8.996 1.932-.505 2.477-1.519 1.786-3.32-.837-2.182-.381-2.438 2.879-1.62 3.797.953 7.266-1.193 3.797-2.35-.98-.326-1.34-1.695-.81-3.077.621-1.618 1.849-2.148 3.503-1.513 1.997.766 2.325.4 1.519-1.702-.566-1.473-.193-3.686.828-4.916 1.61-1.94 1.219-2.097-2.95-1.181-3.834.842-4.807.58-4.807-1.295 0-1.293.678-2.35 1.508-2.35.942 0 .801-1.816-.374-4.837-1.036-2.66-1.803-8.854-1.706-13.764.098-4.911-.546-9.839-1.43-10.95-1.197-1.507-.958-2.496.942-3.885 3.143-2.298 3.284-5.066.316-6.205-3.494-1.34-2.665-4.1 2.976-9.909 5.91-6.085 6.542-8.486 2.232-8.486-1.653 0-2.976-.992-2.976-2.232 0-2.65 3.954-3.018 4.811-.448.372 1.117.958.838 1.565-.744.534-1.39.322-2.529-.47-2.529-.793 0-1.437-.837-1.432-1.86.011-2.005 8.797-8.556 11.476-8.556.896 0 1.278-1.339.85-2.976-.986-3.77 1.438-3.77 9.242 0 3.273 1.581 7.291 2.874 8.928 2.873 2.63-.002 2.543-.25-.744-2.13-2.046-1.169-4.906-2.15-6.356-2.179-1.45-.029-3.347-1.612-4.215-3.519-1.342-2.944-2.347-3.336-6.677-2.604-3.919.663-5.707 2.066-7.739 6.07-1.453 2.865-3.456 5.041-4.452 4.837-.996-.205-1.732.13-1.635.744.097.614.097 1.932 0 2.93-.241 2.483-4.64.613-4.64-1.973 0-1.14-1.172-2.123-2.604-2.184-1.433-.06-4.078-.386-5.878-.723-1.8-.337-3.663.018-4.14.79-1.52 2.459-5.384-.119-4.475-2.985.66-2.081.211-2.51-2.02-1.927-3.132.82-5.67-1.706-3.229-3.214 3.008-1.859 1.518-3.842-1.624-2.161-1.922 1.028-3.669 1.145-4.513.3-1.683-1.682-.01-6.649 1.853-5.498.733.453 1.332.114 1.332-.752 0-2.091-.824-1.996-6.026.694-2.415 1.249-4.39 3.258-4.39 4.464 0 1.207-1.005 2.194-2.233 2.194-1.227 0-2.232-1.076-2.232-2.391 0-1.565-.81-2.08-2.343-1.493-1.288.495-3.32-.078-4.515-1.273-1.69-1.69-2.96-1.814-5.715-.559-3.073 1.4-4.128 1.015-7.957-2.902-2.427-2.483-6.51-5.6-9.072-6.924-2.561-1.325-5.48-3.727-6.487-5.338-1.006-1.611-2.308-2.93-2.892-2.93-.584 0-2.736-1.674-4.783-3.72-4.555-4.555-7.638-5.032-5.392-.834 1.772 3.31.055 5.035-3.613 3.627-2.01-.772-2.269-.247-1.46 2.972.837 3.338.5 3.908-2.317 3.908-2.355 0-3.046.654-2.418 2.288.505 1.316-.084 2.658-1.385 3.157-1.244.478-3.242 3.213-4.439 6.078-2.545 6.091-2.766 8.362-.688 7.078.818-.506 1.488.531 1.488 2.304 0 2.254-.672 2.965-2.232 2.366-1.6-.613-2.233.15-2.233 2.693 0 1.953-.837 3.933-1.86 4.4-1.023.468.37.46 3.094-.02 4.2-.738 4.91-.452 4.665 1.878-.493 4.687-.025 5.41 2.268 3.507 1.8-1.494 2.398-1.361 3.193.712.539 1.402.217 3.02-.714 3.596-1.202.743-.824 2.751 1.3 6.919 1.647 3.23 3.483 5.704 4.08 5.5 3.125-1.07 3.619 1.33.716 3.472-1.842 1.36-3.349 3.394-3.349 4.522 0 1.127-1.076 2.05-2.391 2.05-1.54 0-2.079.815-1.513 2.289 1.334 3.478-3.299 4.445-7.997 1.67-3.93-2.322-4.166-2.297-4.903.521-.426 1.629-1.507 2.96-2.402 2.96-2.375 0-1.989-3.8.605-5.952 3.234-2.684 2.737-5.952-.905-5.952-2.644 0-2.983-.615-2.157-3.909.812-3.235.555-3.745-1.492-2.959-1.667.64-2.231.317-1.73-.99.41-1.067-.185-3.211-1.322-4.766-2.835-3.877-2.67-7.272.297-6.133 2.02.775 2.212.009 1.32-5.266-.985-5.833-.862-6.127 2.22-5.32 2.777.726 3.796-.294 6.85-6.852 4.234-9.095 4.34-10.674 1.314-19.587-1.266-3.728-1.9-7.429-1.408-8.223.491-.795 1.137-6.08 1.435-11.745.298-5.664 1.417-11.865 2.486-13.778 1.069-1.913 2.092-5.04 2.274-6.95.385-4.03 3.053-7.69 5.607-7.69.977 0 3.814-2.175 6.305-4.835 7.57-8.085 13.945-13.154 15.406-12.252.762.471 2.823.087 4.581-.854 2.504-1.34 3.465-1.276 4.438.298 1.481 2.397 11.32-6.673 21.16-19.51 8.81-11.49 19.45-20.815 21.458-18.807.473.473-.917 2.257-3.088 3.965-2.171 1.707-3.947 3.558-3.946 4.113 0 .554 3.181 1.199 7.068 1.432C162.95 13.567 219.71 31.237 242.8 46.728c10.392 6.972 21.372 19.144 23.841 26.43.926 2.732 3.753 10.66 6.283 17.616 2.53 6.957 5.368 15.662 6.308 19.345l1.708 6.697 3.914-8.04c2.597-5.334 3.339-8.239 2.205-8.63-1.065-.368-1.428-2.683-.964-6.143.531-3.96-.133-7.032-2.319-10.715-1.685-2.84-5.185-8.995-7.778-13.678-5.25-9.482-17.443-22.67-29.199-31.578-8.805-6.673-25.343-15.693-28.79-15.704-1.27-.003-2.943-.589-3.72-1.3-1.797-1.644-39.157-14.16-49.06-16.434-4.108-.944-12.912-1.861-19.566-2.039C131.998 2.19 130.23 0 143.6 0c25.116 0 82.302 18.838 102.32 33.705 9.652 7.17 20.502 16.093 21.034 17.301.28.636 3.542 4.654 7.248 8.929 7.364 8.495 14.961 23.08 16.292 31.278.86 5.302-2.205 17.016-6.7 25.603-1.284 2.455-2.15 5.108-1.925 5.895.226.788-.596 2.168-1.827 3.069-3.229 2.36-18.496 33.56-21.708 44.362-4.158 13.98-4.73 18.582-2.476 19.915 2.825 1.67 3.716 8.435 1.396 10.602-1.083 1.012-1.97 2.935-1.97 4.273 0 1.968.71 1.766 3.72-1.062 4.931-4.632 4.735-2.35-.371 4.324-4.562 5.962-6.024 12.407-2.509 11.058 3.382-1.298 2.65 3.79-1.9 13.2-3.85 7.964-5.637 9.663-13.076 12.436-2.659.99-2.698 1.176-.373 1.732 1.433.343 2.605 1.169 2.605 1.836 0 .668 1.144 1.121 2.542 1.007 2.09-.17 2.58 1.237 2.747 7.904.242 9.689-3.692 14.955-11.174 14.955-2.493 0-4.532.67-4.532 1.488 0 .819.67 1.488 1.488 1.488 3.118 0 1.288 2.52-3.483 4.796-3 1.43-5.774 1.874-6.997 1.118-2.762-1.707-4.913-.139-2.989 2.18 1.97 2.372-8.17 7.297-13.478 6.547-1.987-.281-4.71.647-6.163 2.1-3.258 3.258-7.613 3.336-10.755.194-1.814-1.814-3.908-2.171-8.457-1.444-3.795.607-6.826.32-8.14-.77-1.15-.955-3.586-1.812-5.412-1.904-2.258-.114-3.32-1.109-3.321-3.112-.001-2.117-1.018-2.953-3.621-2.976-2.822-.025-3.897-1.098-4.879-4.868-.693-2.66-2.213-4.837-3.379-4.837-3.012 0-9.7 3.222-9.7 4.673 0 .67-2.765 2.63-6.145 4.354-6.405 3.268-31.915 12.158-35.15 12.25-1.023.029-1.86.634-1.86 1.344 0 .71-3.348.847-7.44.304-5.118-.678-7.441-.462-7.441.693 0 .924-1.34 1.68-2.976 1.68-1.637 0-2.976-.67-2.976-1.488zm165.984-32.837c1.527-2.47.156-2.813-1.98-.495-1.055 1.145-1.262 2.082-.46 2.082.803 0 1.9-.714 2.44-1.587zm-9.734-11.806c0-.819-.965-1.488-2.144-1.488-1.18 0-2.558.67-3.064 1.488-.506.818.459 1.488 2.144 1.488s3.064-.67 3.064-1.488zm-84.283-15.625c.47-1.228.207-2.232-.585-2.232-.793 0-1.442 1.004-1.442 2.232 0 1.228.264 2.232.585 2.232.322 0 .97-1.004 1.442-2.232zm13.598-15.625c.506-.819-.124-1.488-1.4-1.488-1.276 0-2.32.67-2.32 1.488s.63 1.488 1.4 1.488c.77 0 1.815-.67 2.32-1.488zm-3.72-20.834c0-.818-.67-1.488-1.488-1.488s-1.488.67-1.488 1.488c0 .819.67 1.488 1.488 1.488.819 0 1.488-.67 1.488-1.488zm85.467-5.644c-.623-2.215-1.024-4.53-.89-5.144.135-.614-.425-1.116-1.243-1.116-2.589 0-2.257 8.382.463 11.696 2.251 2.743 3.15-.178 1.67-5.436zm7.968-.511c-.372-1.115-1.046-.44-1.573 1.572-.647 2.475-.453 3.056.651 1.952.865-.865 1.28-2.45.922-3.524zm-3.773-18.555c-.485-13.546 6.063-31.254 11.88-32.123 1.689-.252 4.262-2.133 5.719-4.179 2.47-3.471 2.506-4.764.526-19.345-1.166-8.594-3.077-17.634-4.246-20.09-1.169-2.455-2.937-7.142-3.928-10.416-.992-3.274-3.423-8.888-5.403-12.476-9.037-16.379-14.054-20.932-30.694-27.86-5.06-2.106-14.223-6.353-20.361-9.437-6.415-3.224-15.59-6.388-21.577-7.442-5.73-1.008-13.096-3.032-16.37-4.496-8.958-4.007-35.244-8.655-43.654-7.72-1.912.213-4.35-.338-5.418-1.225-1.487-1.234-3.087-.118-6.826 4.76-2.686 3.505-7.247 8.883-10.137 11.952-6.487 6.891-4.223 7.29 9.715 1.715 7.426-2.971 11.103-3.65 15.88-2.934 3.417.513 8.124.935 10.458.938 2.914.004 4.476.89 4.983 2.83.407 1.554 1.61 2.492 2.674 2.083 1.064-.408 2.377-.027 2.917.847s2.26 1.59 3.819 1.59c1.56 0 3.605 1.437 4.546 3.194 1.39 2.597 1.26 3.446-.692 4.538-2.536 1.42-3.365 7.149-1.035 7.149 3.053 0 6.074-1.93 6.074-3.88 0-2.663 1.573-2.61 8.842.299 3.26 1.304 6.332 3.648 6.827 5.208.495 1.56 2.216 2.837 3.823 2.837 1.608 0 3.346 1.172 3.864 2.604.518 1.433 5.55 7.299 11.184 13.036 5.633 5.738 11.62 12.607 13.303 15.266 2.867 4.527 2.886 4.778.302 3.962-1.608-.507-.587 1.053 2.45 3.744 3.378 2.992 5.755 6.826 6.762 10.903 1.172 4.748 2.357 6.405 4.834 6.764 2.017.292 3.63 1.868 4.188 4.092.5 1.99 1.766 3.617 2.814 3.617s1.874.837 1.836 1.86c-.195 5.252.526 6.927 2.632 6.119 1.549-.594 2.232.103 2.232 2.279 0 1.724.748 3.135 1.662 3.135 1.113 0 1.46 3.144 1.054 9.533-.503 7.895-.285 9.11 1.267 7.068 1.686-2.216 1.88-2.132 1.922.832.026 1.813-1.292 4.013-2.929 4.889-3.987 2.134-3.778 5.631.372 6.22 2.9.412 3.283 1.225 2.86 6.057-.52 5.936 1.461 7.331 4.225 2.976 1.38-2.174 1.54-1.883.972 1.766-.823 5.278.264 8.617 2.543 7.813 1.075-.38 1.545-4.276 1.31-10.852zM52.16 166.667c.506-.818.25-1.488-.569-1.488-.818 0-1.902.67-2.407 1.488-.506.819-.25 1.488.568 1.488s1.902-.67 2.408-1.488zm-1.86-15.866c-1.023-.413-1.86-2.146-1.86-3.851s-.423-2.677-.94-2.16c-.517.516-2.191.27-3.72-.549-1.53-.818-2.781-.987-2.781-.376 0 1.54 7.848 7.829 9.673 7.75.818-.035.65-.402-.372-.814zm125.191-12.036c-1.254-5.228-1.747-5.735-3.686-3.796-1.122 1.122-1.01 2.507.383 4.737 2.756 4.414 4.47 3.925 3.303-.94zm13.781-39.81c.472-1.23.423-3.967-.108-6.083-.796-3.171-1.348-3.531-3.137-2.047-2.961 2.458-2.879 10.366.108 10.366 1.254 0 2.665-1.006 3.137-2.236zM174.12 84.822c1.058 0 2.326-2.01 2.817-4.465.676-3.38 1.715-4.47 4.278-4.487 4.275-.028 7.984-2.235 5.911-3.516-.832-.514-2.517-.55-3.744-.079-1.563.6-2.807-.734-4.153-4.46-2.305-6.373-4.93-7.1-3.588-.992.545 2.48.278 4.738-.626 5.296-.866.535-1.575 2.183-1.575 3.661 0 1.478-1.49 4.582-3.31 6.896-2.834 3.603-2.924 4.06-.623 3.177 1.479-.567 3.554-1.031 4.613-1.031zm-3.656-9.94c0-.555-.805-3.236-1.79-5.957-1.32-3.651-2.46-4.733-4.353-4.132-1.55.492-3.153-.237-4.052-1.843-1.825-3.262-2.554-2.579-3.887 3.642-.666 3.11-.462 4.837.57 4.837.884 0 1.685-1.172 1.78-2.604.164-2.48.205-2.48.853 0 .374 1.432 1.554 2.604 2.621 2.604 1.068 0 2.775 1.004 3.793 2.232 1.912 2.304 4.465 3.002 4.465 1.222zm-21.578-17.61c0-4.91-3.133-6.04-5.655-2.043-2.057 3.263-.164 7.607 3.047 6.989 1.791-.345 2.608-1.894 2.608-4.947zM98.291 44.642c.506-.818-.085-1.488-1.313-1.488-1.227 0-2.646.67-3.151 1.488-.506.818.084 1.488 1.312 1.488s2.646-.67 3.152-1.488zM60.595 284.771c.294-1.527 1.195-2.609 2.002-2.404 2.163.548 1.785 3.739-.535 4.512-1.304.434-1.815-.301-1.467-2.108zm10.166-1.288a2.239 2.239 0 012.232-2.232 2.239 2.239 0 012.232 2.232 2.239 2.239 0 01-2.232 2.232 2.239 2.239 0 01-2.232-2.232zm11.905-1.612c0-1.296.795-2.091 1.767-1.767 2.76.92 3.217 4.123.589 4.123a2.363 2.363 0 01-2.356-2.356zm11.1.769c-1.37-2.216.218-3.42 3.067-2.327 1.315.504 1.974 1.591 1.464 2.415-1.206 1.952-3.296 1.911-4.532-.088zm-51.279-2.133a2.239 2.239 0 012.232-2.232 2.239 2.239 0 012.232 2.232 2.239 2.239 0 01-2.232 2.232 2.239 2.239 0 01-2.232-2.232zm62.5 0a2.239 2.239 0 012.232-2.232 2.239 2.239 0 012.233 2.232 2.239 2.239 0 01-2.233 2.232 2.239 2.239 0 01-2.232-2.232zm11.905-.915c0-1.696.786-2.791 1.767-2.464 2.756.918 3.068 3.662.528 4.637-1.608.617-2.295-.033-2.295-2.173zm-63.18.274c-.471-.762-.176-1.806.656-2.32 1.776-1.098 4.488.295 4.488 2.305 0 1.81-4.027 1.822-5.145.015zm12.048.352c-1.676-1.675-1.02-3.431 1.28-3.431 1.228 0 2.233.63 2.233 1.4 0 1.876-2.324 3.22-3.513 2.031zm10.953-2.563a2.363 2.363 0 012.357-2.356c2.627 0 2.17 3.203-.59 4.123-.971.324-1.767-.471-1.767-1.767zm10.742-1.098c.773-2.32 3.963-2.698 4.511-.535.205.807-.877 1.708-2.403 2.002-1.808.349-2.543-.163-2.108-1.467zm12.404.36c-1.548-2.506.642-5.212 2.618-3.236 1.165 1.165 1.165 2.07 0 3.235s-1.898 1.165-2.618 0zm-51.915-1.122c-1.713-1.713-1.084-3.473 1.24-3.473a2.239 2.239 0 012.232 2.232c0 2.324-1.76 2.953-3.472 1.24zm62.315-.394c-1.1-1.78 1.7-3.545 3.681-2.32 1.664 1.029.572 3.706-1.512 3.706-.722 0-1.698-.624-2.169-1.386zm11.856-.078c-1.097-1.776.296-4.489 2.305-4.489 1.811 0 1.823 4.028.015 5.145-.761.47-1.805.176-2.32-.656zm-63.259-2.257a2.239 2.239 0 012.232-2.232 2.239 2.239 0 012.233 2.232 2.239 2.239 0 01-2.233 2.233 2.239 2.239 0 01-2.232-2.233zm11.04.55c-1.268-2.052 1.645-4.883 3.712-3.606.89.55 1.617 1.558 1.617 2.24 0 1.98-4.272 3.075-5.328 1.366zm63.649-.922c.275-1.432 1.152-2.604 1.948-2.604s1.673 1.172 1.95 2.604c.313 1.63-.417 2.604-1.95 2.604-1.532 0-2.262-.975-1.948-2.604zm-51.375.124c-1.712-1.712-1.084-3.472 1.24-3.472a2.239 2.239 0 012.232 2.232c0 2.324-1.76 2.953-3.472 1.24zm10.913-2.728a2.239 2.239 0 012.232-2.232 2.239 2.239 0 012.232 2.232 2.239 2.239 0 01-2.232 2.232 2.239 2.239 0 01-2.232-2.232zm11.877.728c-1.736-1.074-1.804-1.724-.332-3.196 2.219-2.219 5.251.113 3.606 2.774-.706 1.142-1.866 1.292-3.273.422zM41 268.602a2.239 2.239 0 012.232-2.232 2.239 2.239 0 012.232 2.232 2.239 2.239 0 01-2.232 2.232A2.239 2.239 0 0141 268.602zm12.5-.372c-.518-1.841-2.066-3.348-3.439-3.348-1.373 0-5.388-2.697-8.922-5.992-5.656-5.275-6.463-6.833-6.741-13.02-.184-4.092.58-8.43 1.826-10.378 1.89-2.956 1.87-3.348-.173-3.348-3.315 0-4.21-2.178-2.616-6.369 2.294-6.033 5.577-5.996 13.973.16 10.023 7.35 12.47 8.203 14.422 5.03 1.432-2.328 1.764-2.26 3.941.807 1.308 1.841 3.013 3.348 3.79 3.348.776 0 4.545 2.582 8.375 5.739 8.5 7.005 11.413 8.129 13.756 5.305 1.435-1.729 1.298-2.729-.671-4.905-2.718-3.003-1.822-7.627 1.478-7.627 1.14 0 2.073 1.004 2.073 2.232 0 1.228-.752 2.232-1.67 2.232-1.15 0-1.088.702.195 2.249 1.652 1.99 2.088 1.948 3.796-.372 1.835-2.491 1.983-2.485 2.998.133.635 1.64.326 3.212-.763 3.885-1.363.843-1.228 1.362.527 2.036 1.297.497 2.357.256 2.357-.537 0-2.805 4.13-1.396 4.935 1.684.45 1.72 1.373 2.783 2.052 2.363.68-.42 2.9.159 4.937 1.286 2.035 1.127 3.071 2.072 2.3 2.101-.77.03-.1 1.01 1.489 2.179 2.784 2.05 2.79 2.164.134 3.193-1.653.64-3.215.322-3.906-.797-.916-1.482-1.396-1.468-2.346.068-.7 1.131-.468 2.173.558 2.515 2.414.804 2.215 4.8-.24 4.8-1.263 0-2.065-1.997-2.196-5.47-.286-7.627-2.709-9.59-6.343-5.144-2.502 3.062-3.207 3.257-5.381 1.488-2.194-1.784-2.38-1.707-1.505.626 1.376 3.67-3.294 5.372-5.233 1.908-1.343-2.4-1.605-2.363-3.62.514-1.195 1.706-3.474 3.102-5.065 3.102-1.9 0-2.891 1.02-2.891 2.976 0 3.224-3.83 4.135-4.826 1.147-.444-1.33-1.737-1.09-4.748.883-2.993 1.961-4.587 2.261-5.764 1.085-2.387-2.388-5.636-1.987-7.911.977-1.867 2.431-2.063 2.382-2.942-.744zm4.822-7.44c1.93-2.48 2.1-2.48 3.586 0 1.914 3.191 5.667 3.396 6.828.372.962-2.507 4.489-3.019 5.25-.763.298.881 2.11.632 4.525-.623 2.215-1.15 5.229-2.358 6.696-2.683 1.468-.325-1.877-.466-7.431-.314-5.555.151-10.528.704-11.05 1.227-.524.523-2.34-.354-4.038-1.95-1.698-1.594-3.756-2.947-4.575-3.007-.818-.059-2.743-.506-4.278-.993-1.59-.505-3.323-.023-4.03 1.121-.964 1.56-1.638 1.61-3.025.223-1.375-1.376-1.38-2.272-.024-3.906 1.384-1.668 1.275-2.308-.51-2.993-1.248-.48-2.27-.222-2.27.57 0 .793-1.004 1.442-2.232 1.442-1.381 0-2.232 1.4-2.232 3.673 0 2.566.638 3.429 2.118 2.861 1.213-.465 2.825.508 3.773 2.279.91 1.7 2.635 3.091 3.834 3.091 1.199 0 2.18.67 2.18 1.489 0 2.447 4.728 1.683 6.905-1.116zm-6.905-4.093a2.239 2.239 0 012.232-2.232 2.239 2.239 0 012.232 2.232 2.239 2.239 0 01-2.232 2.232 2.239 2.239 0 01-2.232-2.232zm29.76-4.841c0-.208-6.862-3.74-15.251-7.85-8.39-4.11-16.444-8.293-17.9-9.295-2.145-1.478-2.91-1.402-4.032.4-2.928 4.697 8.145 13.664 19.3 15.63 2.83.498 5.452 1.212 5.827 1.587.683.683 12.051.238 12.056-.472zm16.37-2.781c0-1.978-.403-2.08-2.231-.562-1.228 1.019-2.232 2.105-2.232 2.414 0 .31 1.004.562 2.232.562 1.227 0 2.232-1.087 2.232-2.414zm17.858 19.527a2.239 2.239 0 012.232-2.232 2.239 2.239 0 012.232 2.232 2.239 2.239 0 01-2.232 2.232 2.239 2.239 0 01-2.232-2.232zm11.224-.641c-.47-.762-.175-1.806.657-2.32 1.775-1.098 4.488.295 4.488 2.305 0 1.81-4.028 1.822-5.145.015zm11.857-.079c-1.098-1.776.295-4.488 2.305-4.488 1.81 0 1.822 4.027.015 5.144-.762.471-1.806.176-2.32-.656zm-51.105-2.457c.294-1.526 1.195-2.608 2.003-2.403 2.162.548 1.785 3.738-.535 4.511-1.304.435-1.816-.3-1.468-2.108zm-51.59-.543c-1.213-1.964.566-4.75 2.336-3.657 1.807 1.117 1.795 5.145-.015 5.145-.77 0-1.814-.67-2.32-1.488zm61.757-.744c0-1.533.975-2.263 2.604-1.95 1.432.277 2.604 1.154 2.604 1.95s-1.172 1.673-2.604 1.949c-1.629.313-2.604-.417-2.604-1.95zm23.295-1.425c-.617-1.609.033-2.296 2.173-2.296 1.696 0 2.792.786 2.465 1.768-.919 2.755-3.663 3.067-4.638.528zm10.931-1.551a2.239 2.239 0 012.232-2.233 2.239 2.239 0 012.232 2.233 2.239 2.239 0 01-2.232 2.232 2.239 2.239 0 01-2.232-2.232zm-28.274-2.977a2.239 2.239 0 012.232-2.232 2.239 2.239 0 012.233 2.232 2.239 2.239 0 01-2.233 2.233 2.239 2.239 0 01-2.232-2.233zm23.146-.614c-1.548-2.505.642-5.211 2.618-3.236 1.164 1.165 1.164 2.071 0 3.236-1.165 1.165-1.898 1.165-2.618 0zm10.4-1.515c-1.1-1.78 1.699-3.545 3.681-2.32 1.664 1.029.572 3.705-1.512 3.705-.722 0-1.698-.623-2.169-1.385zm-17.177-5.311a2.239 2.239 0 012.232-2.232 2.239 2.239 0 012.233 2.232 2.239 2.239 0 01-2.233 2.232 2.239 2.239 0 01-2.232-2.232zm10.79-1.116c.34-1.023 1.512-1.86 2.603-1.86 1.092 0 2.263.837 2.604 1.86.37 1.106-.686 1.86-2.604 1.86-1.918 0-2.973-.754-2.604-1.86zm-100.076-3.436c0-1.276.67-1.906 1.488-1.4.819.505 1.489 1.55 1.489 2.32 0 .77-.67 1.4-1.489 1.4-.818 0-1.488-1.044-1.488-2.32zm83.334-.657c0-1.917.754-2.973 1.86-2.604 1.023.341 1.86 1.513 1.86 2.605 0 1.09-.837 2.263-1.86 2.604-1.106.369-1.86-.687-1.86-2.605zm10.417-.744c0-1.532.975-2.262 2.604-1.948 1.432.275 2.604 1.152 2.604 1.948s-1.172 1.673-2.604 1.95c-1.63.313-2.604-.417-2.604-1.95zm12.856 1.2c-1.778-1.778-.96-4.92 1.28-4.92 1.228 0 2.233.965 2.233 2.145 0 2.486-2.124 4.164-3.513 2.775zm-52.227-3.329c-.471-.762-.176-1.806.656-2.32 1.776-1.097 4.488.296 4.488 2.305 0 1.81-4.027 1.823-5.144.015zm22.546-1.054c-1.389-1.39.29-3.513 2.776-3.513 1.179 0 2.144 1.004 2.144 2.232 0 2.242-3.142 3.06-4.92 1.28zm11.631-.513c-1.097-1.775.296-4.488 2.305-4.488 1.811 0 1.823 4.028.015 5.145-.762.47-1.806.175-2.32-.657zm11.146-2.256a2.239 2.239 0 012.232-2.232 2.239 2.239 0 012.232 2.232 2.239 2.239 0 01-2.232 2.232 2.239 2.239 0 01-2.232-2.232zm-51.42-.874c-1.533-2.481 1.916-5.326 3.969-3.273 1.717 1.717.642 4.891-1.656 4.891-.722 0-1.763-.728-2.313-1.618zm62.209-.242c.34-1.023 1.513-1.86 2.604-1.86 1.091 0 2.263.837 2.604 1.86.369 1.107-.686 1.86-2.604 1.86-1.918 0-2.973-.753-2.604-1.86zm-111.98-2.692c0-1.685.67-2.65 1.488-2.144.819.505 1.488 1.884 1.488 3.064 0 1.179-.67 2.144-1.488 2.144s-1.488-1.379-1.488-3.064zm73.08 1.027c-1.327-1.598-1.355-2.435-.105-3.207 2.427-1.5 5.437 1.832 3.45 3.819-1.076 1.076-2.1.889-3.346-.612zm10.254-1.683a2.239 2.239 0 012.232-2.232 2.239 2.239 0 012.232 2.232 2.239 2.239 0 01-2.232 2.232 2.239 2.239 0 01-2.232-2.232zm11.905-1.612c0-1.296.795-2.091 1.767-1.767 2.759.92 3.217 4.123.589 4.123a2.363 2.363 0 01-2.356-2.356zm11.16.868c-1.085-1.756.323-4.465 2.32-4.465.77 0 1.4 1.34 1.4 2.977 0 3.138-2.164 4.004-3.72 1.488zM72.25 231.4c0-1.533.975-2.263 2.604-1.95 1.433.277 2.604 1.154 2.604 1.95s-1.171 1.673-2.604 1.948c-1.629.314-2.604-.416-2.604-1.948zm12.514.184c-1.26-3.285.416-4.963 2.69-2.69 1.342 1.343 1.347 2.175.024 3.498-1.324 1.324-1.97 1.132-2.714-.808zm10.49-1.028c-1.37-2.216.219-3.42 3.068-2.327 1.315.505 1.974 1.592 1.464 2.416-1.206 1.952-3.296 1.91-4.532-.089zm11.222-2.133a2.239 2.239 0 012.233-2.232 2.239 2.239 0 012.232 2.232 2.239 2.239 0 01-2.232 2.232 2.239 2.239 0 01-2.233-2.232zm11.905-.744c0-1.918.754-2.973 1.86-2.604 1.023.341 1.86 1.513 1.86 2.604 0 1.092-.837 2.263-1.86 2.604-1.106.37-1.86-.686-1.86-2.604zm10.417-.744c0-1.532.975-2.262 2.604-1.949 1.432.276 2.604 1.153 2.604 1.95 0 .795-1.172 1.672-2.604 1.948-1.629.314-2.604-.416-2.604-1.949zm11.905-.744c0-1.918.753-2.973 1.86-2.604 1.023.341 1.86 1.513 1.86 2.604 0 1.091-.837 2.263-1.86 2.604-1.107.37-1.86-.686-1.86-2.604zm-50.583.023c-1.752-1.094-1.835-1.771-.397-3.21 2.167-2.167 3.826-.951 3.12 2.287-.359 1.646-1.142 1.911-2.723.923zm-62.513-2.255c0-1.364.837-2.201 1.86-1.86 2.107.702 1.875 3.095-.372 3.844-.818.273-1.488-.62-1.488-1.984zm72.917 0a2.239 2.239 0 012.232-2.232 2.239 2.239 0 012.232 2.232 2.239 2.239 0 01-2.232 2.232 2.239 2.239 0 01-2.232-2.232zm11.224-.641c-.47-.762-.175-1.806.657-2.32 1.775-1.098 4.488.295 4.488 2.305 0 1.81-4.028 1.822-5.145.015zm11.842-.103c-1.214-1.964.565-4.75 2.335-3.657 1.807 1.117 1.795 5.145-.015 5.145-.77 0-1.815-.67-2.32-1.488zm11.16-2.232a2.239 2.239 0 012.232-2.232 2.239 2.239 0 012.233 2.232 2.239 2.239 0 01-2.233 2.232 2.239 2.239 0 01-2.232-2.232zm11.161.744c-1.085-1.756.323-4.464 2.32-4.464.77 0 1.4 1.339 1.4 2.976 0 3.138-2.165 4.004-3.72 1.488zm-51.34-3.72a2.239 2.239 0 012.233-2.233 2.239 2.239 0 012.232 2.233 2.239 2.239 0 01-2.232 2.232 2.239 2.239 0 01-2.232-2.232zm11.347 1.045c-.403-.653-.136-2.154.595-3.336 1.003-1.624 1.747-1.73 3.046-.43.945.944 1.268 2.445.718 3.335-1.175 1.901-3.319 2.113-4.359.43zm10.975-2.533a2.239 2.239 0 012.232-2.233 2.239 2.239 0 012.232 2.233 2.239 2.239 0 01-2.232 2.232 2.239 2.239 0 01-2.232-2.232zm11.905.744c-1.758-1.087-1.831-1.74-.36-3.212 1.437-1.437 2.245-1.451 3.634-.062 2.414 2.414-.29 5.118-3.274 3.274zm11.409-.992c-1.713-1.713-1.084-3.473 1.24-3.473a2.239 2.239 0 012.232 2.232c0 2.324-1.76 2.953-3.472 1.24zm11.864-.04c-1.778-1.78-.96-4.92 1.28-4.92 1.228 0 2.233.964 2.233 2.144 0 2.486-2.124 4.164-3.513 2.775zm-63.168-3.06c.275-1.433 1.152-2.605 1.948-2.605s1.673 1.172 1.95 2.604c.313 1.63-.417 2.605-1.95 2.605-1.532 0-2.262-.976-1.948-2.605zm10.94-.27c-1.1-1.78 1.7-3.545 3.681-2.32 1.665 1.029.572 3.705-1.512 3.705-.722 0-1.698-.623-2.168-1.385zm11.348-1.047c.294-1.527 1.195-2.609 2.002-2.404 2.163.548 1.785 3.739-.534 4.512-1.304.434-1.816-.301-1.468-2.108zm-51.67-.673c-1.533-2.482 1.916-5.327 3.968-3.274 1.718 1.717.643 4.891-1.656 4.891-.721 0-1.762-.728-2.312-1.617zm62.86.656c-1.941-1.94-1.015-3.503 2.077-3.503 1.731 0 2.84.78 2.51 1.767-.724 2.175-3.209 3.115-4.588 1.736zm11.833-.071c-1.779-1.779-.961-4.92 1.28-4.92 1.228 0 2.233.965 2.233 2.144 0 2.486-2.124 4.165-3.513 2.776zm10.202-1.954c-.509-.825.15-1.912 1.465-2.416 2.85-1.094 4.437.111 3.067 2.327-1.235 2-3.325 2.04-4.532.089zm-61.75-2.222a2.239 2.239 0 012.233-2.232 2.239 2.239 0 012.232 2.232 2.239 2.239 0 01-2.232 2.232 2.239 2.239 0 01-2.232-2.232zm11.242.874c-1.548-2.505.641-5.212 2.617-3.236 1.165 1.165 1.165 2.07 0 3.236-1.165 1.165-1.897 1.165-2.617 0zm11.08-2.362a2.239 2.239 0 012.232-2.232 2.239 2.239 0 012.233 2.232 2.239 2.239 0 01-2.233 2.232 2.239 2.239 0 01-2.232-2.232zm11.905.744c-1.758-1.087-1.831-1.74-.36-3.212 1.438-1.437 2.245-1.45 3.634-.062 2.414 2.414-.29 5.118-3.274 3.274zm-63.305-1.587c-1.37-2.216.218-3.421 3.067-2.328 1.315.505 1.974 1.592 1.465 2.416-1.207 1.952-3.297 1.911-4.532-.088zm12.173.554c-1.778-1.778-.96-4.92 1.28-4.92 1.228 0 2.233.965 2.233 2.145 0 2.486-2.124 4.164-3.513 2.775zm61.832-1.571c.276-1.433 1.153-2.604 1.949-2.604s1.673 1.171 1.949 2.604c.314 1.629-.416 2.604-1.949 2.604-1.533 0-2.263-.975-1.949-2.604zm-51.703-.502c-1.533-2.481 1.916-5.327 3.969-3.274 1.717 1.717.642 4.892-1.656 4.892-.722 0-1.763-.728-2.313-1.618zm62.644.233c-.47-.762-.175-1.806.656-2.32 1.776-1.098 4.489.295 4.489 2.305 0 1.81-4.028 1.822-5.145.015zm11.841-.103c-1.213-1.964.566-4.75 2.335-3.657 1.808 1.117 1.796 5.145-.015 5.145-.77 0-1.814-.67-2.32-1.488zm-125-1.488c-1.214-1.964.566-4.75 2.335-3.657 1.807 1.117 1.796 5.145-.015 5.145-.77 0-1.814-.67-2.32-1.488zm61.756-.744a2.239 2.239 0 012.232-2.233 2.239 2.239 0 012.232 2.233 2.239 2.239 0 01-2.232 2.232 2.239 2.239 0 01-2.232-2.232zm12.514.184c-1.26-3.285.416-4.963 2.69-2.69 1.342 1.343 1.347 2.175.024 3.498-1.324 1.324-1.97 1.132-2.714-.808zm4.726-5.592c-4.068-3.58-6.663-7.001-6.209-8.185 1.225-3.19-1.814-2.376-3.602.966-1.263 2.36-1.115 3.186.692 3.88 2.508.962 3.208 6.514.82 6.514-2.335 0-10.464-9.156-9.505-10.708.476-.77 1.802-1.04 2.947-.6 1.47.564 2.081-.395 2.081-3.261 0-2.589 1.214-4.83 3.349-6.185l3.348-2.125-3.61-.878c-4.627-1.126-5.782-4.48-1.893-5.496 1.648-.431 3.347-2.129 3.777-3.772.832-3.18 3.958-2.4 3.958.988 0 2.764 11.863 4.751 13.41 2.247 1.712-2.769 4.705-.15 3.645 3.188-.798 2.514-.402 2.778 2.916 1.946 2.217-.557 3.839-.333 3.839.53 0 .822 3.515 3.723 7.812 6.446 4.297 2.724 8.665 6.109 9.706 7.523 1.041 1.414 2.883 3.56 4.092 4.77 1.21 1.21 2.2 2.916 2.2 3.793 0 3.037-4.217 1.575-7.826-2.714-3.222-3.829-12.83-10.077-13.568-8.822-.155.265-1.216 1.697-2.357 3.183-1.905 2.482-1.719 2.664 2.282 2.232 3.84-.414 4.307-.04 3.951 3.16-.511 4.587-.422 4.514-6.852 5.558-4.352.706-5.393.406-5.393-1.552 0-1.335-.781-2.427-1.736-2.427s-1.295.44-.757.98c1.06 1.06-1.64 4.973-3.432 4.973-.603 0-4.241-2.769-8.085-6.152zm16.349-8.73c0-2.108-.992-2.976-3.402-2.976-1.87 0-3.401-.568-3.401-1.262 0-.694-2.679-2.315-5.952-3.6-3.274-1.287-5.953-1.723-5.953-.97 0 .752.971 1.368 2.158 1.368 1.187 0 2.694.872 3.349 1.938 1.07 1.745 10.432 8.05 12.403 8.356.439.067.798-1.217.798-2.853zm-60.87 12.401c-1.713-1.712-1.084-3.472 1.24-3.472a2.239 2.239 0 012.232 2.232c0 2.324-1.76 2.953-3.473 1.24zm72.588-.625c-.55-.89-.416-2.201.297-2.915 1.76-1.76 5.633.802 4.35 2.878-1.3 2.103-3.36 2.12-4.647.037zm-62.792-1.73c.341-1.024 1.513-1.86 2.604-1.86 1.091 0 2.263.836 2.604 1.86.37 1.106-.686 1.86-2.604 1.86-1.918 0-2.973-.754-2.604-1.86zm12.357.501c-1.548-2.505.642-5.211 2.618-3.236 1.164 1.165 1.164 2.071 0 3.236-1.165 1.165-1.898 1.165-2.618 0zM29.758 196.3c-1.533-2.482 1.916-5.327 3.968-3.274 1.718 1.717.643 4.891-1.656 4.891-.721 0-1.762-.728-2.312-1.617zm34.226-2.977c-.55-.89-.226-2.39.719-3.335 1.298-1.3 2.042-1.194 3.046.43 1.418 2.295.703 4.523-1.452 4.523-.722 0-1.763-.728-2.313-1.618zm11.241-2.102a2.239 2.239 0 012.232-2.232 2.239 2.239 0 012.233 2.232 2.239 2.239 0 01-2.233 2.232 2.239 2.239 0 01-2.232-2.232zm73.95 1.28c-1.389-1.388.29-3.512 2.775-3.512 1.18 0 2.145 1.004 2.145 2.232 0 2.241-3.142 3.059-4.92 1.28zM23.949 190.58c-1.1-1.781 1.7-3.545 3.681-2.32 1.665 1.028.572 3.705-1.512 3.705-.722 0-1.698-.623-2.169-1.385zm12.05.352c-1.78-1.778-.962-4.92 1.28-4.92 1.227 0 2.232.965 2.232 2.145 0 2.486-2.124 4.164-3.513 2.775zm10.202-1.954c-.51-.824.15-1.911 1.464-2.416 2.85-1.093 4.437.112 3.068 2.328-1.236 2-3.326 2.04-4.532.088zm23.68-2.037c-1.26-3.285.417-4.963 2.69-2.69 1.343 1.343 1.348 2.175.025 3.498-1.324 1.324-1.97 1.132-2.714-.808zm72.973.43c-1.534-2.481 1.915-5.327 3.968-3.274 1.717 1.717.643 4.892-1.656 4.892-.722 0-1.762-.728-2.312-1.618zm-65.91-3.661c-3.885-3.871-3.049-7.249 1.44-5.824 2.515.798 2.78.402 1.947-2.916-.748-2.98-.407-3.839 1.523-3.839 1.725 0 2.344 1.026 2.021 3.349-.378 2.722.16 3.26 2.883 2.882 2.328-.323 3.348.296 3.348 2.034 0 1.766-.872 2.271-2.974 1.721-3.244-.848-5.457 1.131-2.978 2.663 1.897 1.173.473 3.778-1.948 3.564-.975-.087-3.343-1.722-5.262-3.634zm-47.85.07a2.239 2.239 0 012.232-2.232 2.239 2.239 0 012.233 2.232 2.239 2.239 0 01-2.233 2.232 2.239 2.239 0 01-2.232-2.232zm11.225-.64c-1.101-1.782 1.698-3.546 3.68-2.32 1.665 1.028.572 3.704-1.512 3.704-.722 0-1.698-.623-2.168-1.385zm11.38-1.22c.276-1.432 1.153-2.604 1.949-2.604s1.673 1.172 1.949 2.604c.313 1.63-.416 2.604-1.95 2.604-1.532 0-2.262-.975-1.948-2.604zm85.346-.269c-1.1-1.78 1.699-3.545 3.681-2.32 1.664 1.029.572 3.705-1.512 3.705-.722 0-1.698-.623-2.169-1.385zm12.049.353c-1.779-1.779-.961-4.92 1.28-4.92 1.228 0 2.233.965 2.233 2.144 0 2.486-2.124 4.165-3.513 2.776zM34.24 178.473c-1.37-2.216.219-3.42 3.068-2.328 1.315.505 1.974 1.592 1.464 2.416-1.206 1.952-3.296 1.911-4.532-.088zm11.222-2.133a2.239 2.239 0 012.232-2.232 2.239 2.239 0 012.233 2.232 2.239 2.239 0 01-2.233 2.232 2.239 2.239 0 01-2.232-2.232zm86.42.812c-1.982-1.225-1.029-4.532 1.307-4.532 1.697 0 3.188 4.202 1.795 5.062-.617.382-2.013.143-3.102-.53zm-63.106-1.06c-1.712-1.712-1.084-3.472 1.24-3.472a2.239 2.239 0 012.232 2.232c0 2.324-1.76 2.952-3.472 1.24zm73.413-1.24a2.239 2.239 0 012.232-2.232 2.239 2.239 0 012.232 2.232 2.239 2.239 0 01-2.232 2.232 2.239 2.239 0 01-2.232-2.232zm-17.857-4.465c0-1.532.975-2.262 2.604-1.948 1.432.275 2.604 1.152 2.604 1.948s-1.172 1.673-2.604 1.95c-1.63.313-2.604-.417-2.604-1.95zm12.513.185c-1.26-3.285.417-4.963 2.69-2.69 1.342 1.343 1.348 2.174.024 3.498-1.324 1.324-1.97 1.132-2.714-.808zm-62.825-2.045c.275-1.432 1.152-2.604 1.948-2.604s1.673 1.172 1.95 2.604c.313 1.63-.417 2.604-1.95 2.604-1.532 0-2.262-.975-1.948-2.604zm73.297.987c-.55-.89-.227-2.391.718-3.336 1.299-1.299 2.042-1.194 3.046.43 1.419 2.296.703 4.523-1.452 4.523-.722 0-1.762-.727-2.312-1.617zm-62.84-1.589c.774-2.319 3.964-2.697 4.512-.534.205.807-.877 1.708-2.403 2.002-1.808.348-2.543-.164-2.108-1.468zm-50.92-2.002a2.239 2.239 0 012.233-2.232 2.239 2.239 0 012.232 2.232 2.239 2.239 0 01-2.232 2.232 2.239 2.239 0 01-2.232-2.232zm73.725.847c-.47-.762-.176-1.806.656-2.32 1.776-1.098 4.489.296 4.489 2.305 0 1.81-4.028 1.822-5.145.015zm11.438-1.87c.92-2.76 4.124-3.217 4.124-.589a2.363 2.363 0 01-2.357 2.356c-1.296 0-2.09-.795-1.767-1.767zm11.564-.465a2.239 2.239 0 012.232-2.232 2.239 2.239 0 012.232 2.232 2.239 2.239 0 01-2.232 2.232 2.239 2.239 0 01-2.232-2.232zm-62.5-1.612c0-2.628 3.203-2.17 4.123.589.324.972-.471 1.767-1.767 1.767a2.363 2.363 0 01-2.356-2.356zm11.16.868c-1.602-2.593.773-4.805 3.093-2.88 1.146.951 1.716 2.323 1.268 3.049-1.086 1.756-3.222 1.673-4.36-.169zm62.098-.279c.92-2.76 4.123-3.217 4.123-.59a2.363 2.363 0 01-2.356 2.357c-1.296 0-2.091-.795-1.767-1.767zm-50.937-1.953a2.239 2.239 0 012.232-2.232 2.239 2.239 0 012.233 2.232 2.239 2.239 0 01-2.233 2.232 2.239 2.239 0 01-2.232-2.232zm10.79-1.116c.34-1.023 1.512-1.86 2.603-1.86 1.092 0 2.263.837 2.604 1.86.37 1.106-.686 1.86-2.604 1.86-1.918 0-2.973-.754-2.604-1.86zm11.532-.372a2.239 2.239 0 012.232-2.232 2.239 2.239 0 012.232 2.232 2.239 2.239 0 01-2.232 2.232 2.239 2.239 0 01-2.232-2.232zm11.905-1.612c0-1.296.795-2.091 1.767-1.767 2.759.92 3.217 4.123.589 4.123a2.363 2.363 0 01-2.356-2.356zm11.16.868c-1.213-1.964.566-4.75 2.335-3.657 1.808 1.117 1.796 5.145-.015 5.145-.77 0-1.814-.67-2.32-1.488zm-63.244-2.232a2.239 2.239 0 012.232-2.233 2.239 2.239 0 012.232 2.233 2.239 2.239 0 01-2.232 2.232 2.239 2.239 0 01-2.232-2.232zm11.905-.745c0-1.917.754-2.973 1.86-2.604 1.023.341 1.86 1.513 1.86 2.604 0 1.092-.837 2.264-1.86 2.605-1.106.369-1.86-.687-1.86-2.605zm62.5.745a2.239 2.239 0 012.232-2.233 2.239 2.239 0 012.232 2.233 2.239 2.239 0 01-2.232 2.232 2.239 2.239 0 01-2.232-2.232zm-51.4-.844c-1.37-2.216.218-3.42 3.067-2.327 1.315.505 1.974 1.592 1.464 2.416-1.206 1.952-3.296 1.91-4.532-.089zm11.221-2.133a2.239 2.239 0 012.233-2.232 2.239 2.239 0 012.232 2.232 2.239 2.239 0 01-2.232 2.232 2.239 2.239 0 01-2.233-2.232zm11.44 1.271c-1.94-1.94-1.014-3.503 2.077-3.503 1.732 0 2.84.78 2.512 1.767-.725 2.175-3.21 3.115-4.589 1.736zm-51.368-2.96c.294-1.526 1.195-2.608 2.002-2.403 2.163.548 1.785 3.739-.534 4.512-1.304.434-1.816-.301-1.468-2.108zm62.25.201a2.239 2.239 0 012.232-2.232 2.239 2.239 0 012.232 2.232 2.239 2.239 0 01-2.232 2.232 2.239 2.239 0 01-2.232-2.232zm12.155-.2c.294-1.527 1.195-2.609 2.002-2.404 2.163.548 1.785 3.739-.534 4.512-1.304.434-1.816-.301-1.468-2.108zm-63.206-.007c-1.389-1.39.29-3.513 2.776-3.513 1.179 0 2.144 1.004 2.144 2.232 0 2.242-3.142 3.06-4.92 1.28zm73.372-1.28c0-1.534.976-2.263 2.605-1.95 1.432.276 2.604 1.153 2.604 1.95 0 .795-1.172 1.672-2.604 1.948-1.63.314-2.605-.416-2.605-1.949zm-62.159-1.024c.92-2.76 4.124-3.217 4.124-.589a2.363 2.363 0 01-2.357 2.356c-1.295 0-2.09-.795-1.767-1.767zm11.564-.465a2.239 2.239 0 012.232-2.232 2.239 2.239 0 012.232 2.232 2.239 2.239 0 01-2.232 2.232 2.239 2.239 0 01-2.232-2.232zm10.789-1.116c.34-1.023 1.513-1.86 2.604-1.86 1.091 0 2.263.837 2.604 1.86.369 1.107-.686 1.86-2.604 1.86-1.918 0-2.973-.754-2.604-1.86zm12.277.372c-1.214-1.964.565-4.75 2.335-3.657 1.807 1.117 1.795 5.145-.015 5.145-.77 0-1.815-.67-2.32-1.488zm-63.245-2.232a2.239 2.239 0 012.232-2.232 2.239 2.239 0 012.233 2.232 2.239 2.239 0 01-2.233 2.232 2.239 2.239 0 01-2.232-2.232zm11.307.98c-1.147-1.855 1.628-5.16 3.408-4.06.91.563 1.654 1.582 1.654 2.264 0 1.698-4.202 3.188-5.062 1.796zm62.643.3c-1.389-1.388.29-3.512 2.775-3.512 1.18 0 2.145 1.004 2.145 2.232 0 2.241-3.142 3.059-4.92 1.28zm11.616-.536c-1.085-1.756.323-4.464 2.32-4.464.77 0 1.4 1.339 1.4 2.976 0 3.138-2.165 4.004-3.72 1.488zm-63.244-2.232a2.239 2.239 0 012.232-2.232 2.239 2.239 0 012.232 2.232 2.239 2.239 0 01-2.232 2.232 2.239 2.239 0 01-2.232-2.232zm11.905-1.612c0-1.296.795-2.091 1.767-1.767 2.759.92 3.217 4.123.589 4.123a2.363 2.363 0 01-2.356-2.356zm11.1.769c-1.37-2.216.218-3.421 3.067-2.328 1.315.505 1.974 1.592 1.464 2.416-1.206 1.952-3.296 1.911-4.532-.088zm11.221-2.133a2.239 2.239 0 012.232-2.233 2.239 2.239 0 012.232 2.233 2.239 2.239 0 01-2.232 2.232 2.239 2.239 0 01-2.232-2.232zm11.905.744c-1.758-1.087-1.831-1.74-.36-3.212 1.437-1.437 2.245-1.451 3.634-.062 2.414 2.414-.29 5.118-3.274 3.274zm-63.18-1.386c-.472-.762-.176-1.806.655-2.32 1.776-1.097 4.489.296 4.489 2.305 0 1.811-4.028 1.823-5.145.015zm11.855-.078c-1.097-1.776.296-4.489 2.305-4.489 1.811 0 1.823 4.028.015 5.145-.761.47-1.805.176-2.32-.656zm61.742-.769a2.239 2.239 0 012.232-2.232 2.239 2.239 0 012.232 2.232 2.239 2.239 0 01-2.232 2.233 2.239 2.239 0 01-2.232-2.233zm11.904-.914c0-1.696.786-2.792 1.768-2.465 2.755.919 3.067 3.663.527 4.637-1.608.618-2.295-.032-2.295-2.172zm-62.5-.45a2.363 2.363 0 012.356-2.356c1.296 0 2.091.795 1.768 1.767-.92 2.76-4.124 3.217-4.124.59zm10.742-1.098c.773-2.319 3.963-2.697 4.511-.534.205.807-.877 1.708-2.403 2.002-1.808.348-2.543-.164-2.108-1.468zm11.83-.714c.294-1.527 1.195-2.609 2.002-2.404 2.163.548 1.785 3.739-.534 4.512-1.304.434-1.816-.301-1.468-2.108zm-50.846-.544c-1.758-1.086-1.83-1.74-.36-3.212 1.438-1.437 2.245-1.45 3.634-.062 2.414 2.415-.29 5.119-3.274 3.274zm61.82.103c-.47-.762-.176-1.806.656-2.32 1.776-1.097 4.489.296 4.489 2.305 0 1.81-4.028 1.822-5.145.015zm12.09.393c-1.813-1.812-1.026-4.96 1.24-4.96 1.24 0 2.232 1.323 2.232 2.976 0 2.965-1.586 3.87-3.473 1.984zm-63.493-2.728a2.239 2.239 0 012.232-2.232 2.239 2.239 0 012.232 2.232 2.239 2.239 0 01-2.232 2.232 2.239 2.239 0 01-2.232-2.232zm73.95 1.28c-1.39-1.388.289-3.512 2.775-3.512 1.18 0 2.144 1.004 2.144 2.232 0 2.241-3.141 3.06-4.92 1.28zm-62.726-1.921c-.47-.762-.175-1.806.657-2.32 1.775-1.098 4.488.295 4.488 2.305 0 1.81-4.028 1.822-5.145.015zm11.842-.103c-1.214-1.964.565-4.75 2.335-3.657 1.807 1.117 1.795 5.145-.015 5.145-.77 0-1.815-.67-2.32-1.488zm11.16-2.232a2.239 2.239 0 012.232-2.232 2.239 2.239 0 012.233 2.232 2.239 2.239 0 01-2.233 2.232 2.239 2.239 0 01-2.232-2.232zm11.081.614c-1.534-2.481 1.915-5.326 3.968-3.274 1.717 1.718.643 4.892-1.656 4.892-.722 0-1.762-.728-2.312-1.618zm-62.357-1.255c-1.1-1.781 1.7-3.545 3.681-2.32 1.665 1.028.572 3.705-1.512 3.705-.722 0-1.698-.623-2.169-1.385zm12.05.352c-1.78-1.778-.962-4.92 1.28-4.92 1.227 0 2.232.965 2.232 2.145 0 2.486-2.124 4.164-3.513 2.775zm61.548-1.2a2.239 2.239 0 012.232-2.231 2.239 2.239 0 012.232 2.232 2.239 2.239 0 01-2.232 2.232 2.239 2.239 0 01-2.232-2.232zm-51.346-.754c-.51-.824.15-1.911 1.464-2.416 2.85-1.093 4.437.112 3.068 2.328-1.236 2-3.326 2.04-4.532.088zm12.119.466c-1.779-1.778-.961-4.92 1.28-4.92 1.228 0 2.232.965 2.232 2.145 0 2.486-2.123 4.164-3.512 2.775zm11.203-2.888c.294-1.527 1.195-2.608 2.002-2.404 2.163.549 1.785 3.739-.534 4.512-1.304.435-1.816-.3-1.468-2.108zm10.167-1.288c0-1.532.975-2.262 2.604-1.948 1.432.275 2.604 1.152 2.604 1.948s-1.172 1.673-2.604 1.95c-1.63.313-2.604-.417-2.604-1.95zm12.513.185c-1.26-3.285.417-4.963 2.69-2.69 1.342 1.343 1.348 2.174.024 3.498-1.324 1.324-1.97 1.132-2.714-.808zm-63.109-1.673a2.239 2.239 0 012.232-2.232 2.239 2.239 0 012.233 2.232 2.239 2.239 0 01-2.233 2.232 2.239 2.239 0 01-2.232-2.232zm11.35-.046c-.926-2.41 1.336-4.286 3.531-2.93 2.126 1.314 1.838 3.268-.62 4.211-1.16.445-2.47-.131-2.912-1.281zm10.972-1.442a2.239 2.239 0 012.232-2.232 2.239 2.239 0 012.232 2.232A2.239 2.239 0 0183.41 125a2.239 2.239 0 01-2.232-2.232zm11.905-1.612c0-1.296.795-2.091 1.767-1.767 2.759.92 3.217 4.123.589 4.123a2.363 2.363 0 01-2.356-2.356zm11.175.892c-1.097-1.775.296-4.488 2.305-4.488 1.811 0 1.823 4.028.015 5.145-.762.47-1.806.175-2.32-.657zm-50.745-2.071c-1.26-3.286.416-4.963 2.69-2.69 1.342 1.342 1.347 2.174.023 3.498-1.323 1.324-1.969 1.132-2.713-.808zm10.49-1.028c-1.37-2.216.219-3.42 3.068-2.328 1.315.505 1.974 1.592 1.464 2.416-1.206 1.952-3.296 1.911-4.532-.088zm11.222-2.133a2.239 2.239 0 012.232-2.232 2.239 2.239 0 012.233 2.232 2.239 2.239 0 01-2.233 2.232 2.239 2.239 0 01-2.232-2.232zm11.347 1.045c-.403-.653-.136-2.154.594-3.336 1.004-1.624 1.748-1.73 3.046-.43.945.944 1.268 2.445.719 3.335-1.176 1.902-3.32 2.113-4.359.43zm-28.495-3.335c-1.5-2.427 1.832-5.438 3.819-3.45 1.076 1.075.888 2.1-.612 3.345-1.599 1.327-2.435 1.354-3.207.105zm11.48-2.546c.275-1.433 1.152-2.605 1.948-2.605s1.673 1.172 1.949 2.605c.314 1.628-.416 2.604-1.949 2.604-1.533 0-2.262-.976-1.949-2.604zm10.94-.27c-1.1-1.78 1.7-3.545 3.681-2.32 1.664 1.029.572 3.706-1.512 3.706-.722 0-1.698-.624-2.169-1.386zm-17.176-5.31a2.239 2.239 0 012.232-2.233 2.239 2.239 0 012.232 2.232 2.239 2.239 0 01-2.232 2.232 2.239 2.239 0 01-2.232-2.232zm11.08.614c-1.533-2.482 1.916-5.327 3.968-3.274 1.718 1.717.643 4.891-1.656 4.891-.721 0-1.762-.728-2.312-1.617zm-6.616-6.567c0-1.533.975-2.263 2.604-1.95 1.432.277 2.604 1.154 2.604 1.95s-1.172 1.673-2.604 1.949c-1.629.313-2.604-.417-2.604-1.95z"/></svg>