<svg xmlns="http://www.w3.org/2000/svg" fill="#F9504E" width="210.604" height="298.99" version="1.0"><path d="M128.109 297.075c-.435-1.087-1.072-10.508-1.416-20.936-.594-17.99-.739-18.943-2.829-18.621-2.018.31-2.217 1.377-2.372 12.753-.095 6.97-.664 12.662-1.298 12.979-.684.342-1.573-4.138-2.257-11.387-.821-8.692-1.513-11.821-2.54-11.474-1.008.341-1.41 3.854-1.41 12.327 0 8.977-.342 11.737-1.41 11.383-.969-.321-1.513-3.894-1.735-11.38-.54-18.251-2.498-12.651-2.498 7.145 0 16.494-.802 21.22-2.743 16.163-.4-1.042-.72-9.168-.713-18.058.01-12.993-.292-16.163-1.544-16.163-1.218 0-1.735 3.693-2.375 16.974-.566 11.731-1.209 16.84-2.083 16.537-.881-.305-1.148-5.675-.881-17.76.347-15.726.217-17.185-1.41-15.834-1.47 1.22-1.794 4.118-1.794 16.022 0 13.255-.891 17.463-2.7 12.748-.378-.982-.687-7.711-.688-14.954l-.003-13.168-3.282-.115-3.282-.115.638 12.964c.534 10.83.378 12.877-.947 12.437-1.221-.406-1.659-3.66-1.902-14.152-.262-11.303-.626-13.744-2.137-14.324-1.001-.384-1.967-.552-2.146-.373-.179.179-.687 6.05-1.13 13.045-.537 8.492-1.22 12.577-2.052 12.292-1.285-.44-1.367-2.857-.618-18.17.364-7.432.12-9.125-1.453-10.117-1.04-.656-2.211-.871-2.603-.48-.393.393-.798 6.594-.901 13.78-.148 10.357-.515 13.066-1.768 13.071-1.307.006-1.47-2.498-.938-14.45.596-13.418.487-14.555-1.523-15.81-2.6-1.624-2.463-2.704-2.227 17.57.114 9.801-.234 14.954-1.01 14.954-.775 0-1.186-5.791-1.186-16.703 0-16.01-.632-19.412-3.611-19.412-.497 0-.903 6.603-.903 14.672 0 12.37-.269 14.672-1.714 14.672-1.328 0-1.52-.7-.847-3.104.842-3.01.775-26.145-.078-26.998-.233-.233-1.193-.128-2.133.233-1.327.509-1.827 3.304-2.235 12.483-.303 6.799-1.085 12.387-1.841 13.143-1.002 1-1.14-1.57-.577-10.764.784-12.815.267-14.051-4.4-10.508-1.674 1.27-1.975 3.424-1.975 14.138 0 8.467-.388 12.399-1.175 11.913-.645-.4-.861-1.712-.479-2.917.47-1.477.208-2.09-.8-1.88-.896.186-1.412-.595-1.287-1.947.664-7.175.663-15.76-.001-15.518-.425.156-1.209.283-1.742.283-.533 0-1.234 4.235-1.557 9.412-.783 12.562-3.88 18.186-6.467 11.748l-1.02-2.539-.072 2.728c-.04 1.5-.437 2.361-.885 1.914-.447-.447-.666-2.512-.487-4.588.179-2.077-.217-4.111-.88-4.52-.793-.491-1.205 1.183-1.205 4.897 0 3.104-.45 5.921-1.001 6.262-1.624 1.004-3.188-1.903-3.144-5.846.06-5.394-1.87-4.996-2.822.581-.452 2.648-1.164 5.368-1.583 6.046-1.218 1.971-2.668-1.31-2.033-4.6.305-1.58.682-4.143.836-5.695.498-5.014 4.392-9.832 10.548-13.053 3.284-1.717 5.97-3.753 5.97-4.522 0-.78.879-1.17 1.984-.881 1.14.298 4.763-1.427 8.515-4.056 3.591-2.516 7.207-4.574 8.035-4.574 3.023 0 4.066-3.323 4.915-15.647.803-11.668.704-12.743-1.364-14.81-2.392-2.392-5.575-15.478-6.908-28.4-.673-6.515-1.203-7.821-4.026-9.908-1.788-1.322-3.25-3.256-3.25-4.297 0-1.042-1.704-3.693-3.786-5.891-5.197-5.49-7.127-11.389-7.308-22.338-.134-8.17.086-9.3 1.802-9.221 1.076.049 1.364.33.641.626-.925.378-1.009 1.601-.282 4.136.568 1.979 1.032 6.235 1.032 9.457 0 7.543 1.286 10.763 6.795 17.022 2.47 2.806 4.491 5.762 4.491 6.57 0 .806.564 1.816 1.254 2.242.898.555 1.022-.951.437-5.294-1.722-12.785.608-4.003 3.94 14.848 4.176 23.624 4.3 24.027 9.63 31.446 4.526 6.3 6.348 7.02 3.415 1.349-.993-1.92-1.549-3.49-1.235-3.49.314 0 1.547 1.904 2.74 4.232 1.193 2.327 4.83 7.025 8.083 10.439 19.968 20.956 17.719 19.186 24.386 19.186 4.03 0 6.066.469 6.125 1.41.072 1.13.203 1.13.659 0 .353-.875 2.996-1.453 6.964-1.523 3.518-.061 7.509-.442 8.87-.846 1.366-.405 5.792-5.381 9.89-11.116 4.078-5.71 7.95-10.713 8.604-11.117 2.282-1.41 2.397.515.219 3.659-4.15 5.988-4.015 6.546.374 1.554 8.247-9.381 11.59-15.071 12.646-21.522 3.298-20.157 6.444-34.668 7.884-36.364.908-1.068 2.046-4.108 2.53-6.755.808-4.415.742-4.627-.795-2.572-4.084 5.462-6.986 11.653-7.664 16.348-.403 2.794-1.047 6.603-1.43 8.465l-.698 3.385-.992-3.95c-3.46-13.779-3.48-13.426 1.126-21.386 3.634-6.283 4.737-7.386 7.343-7.348 2.902.042 3.068-.237 3.068-5.181 0-2.875-.7-7.552-1.556-10.396-.86-2.856-1.125-5.6-.592-6.133.532-.532.509-3.728-.052-7.142-.806-4.908-.684-6.436.593-7.431 2.119-1.653 2.062-4.955-.086-4.955-.931 0-1.693-.508-1.693-1.128 0-.621-1.228-1.129-2.728-1.129-1.5 0-2.896-.472-3.103-1.05-.207-.577-3.685.367-7.73 2.097-19.987 8.552-48.119 11.506-65.516 6.88-4.614-1.227-9.658-2.25-11.21-2.274-3.637-.055-10.427-2.467-17.27-6.134-2.982-1.598-5.648-2.905-5.925-2.905-.278 0-.505 1.254-.505 2.786 0 2.013.47 2.606 1.693 2.137 1.14-.438 1.693.053 1.693 1.502 0 1.184.555 2.708 1.233 3.386.892.892.868 1.915-.087 3.699-.8 1.495-1.174 6.097-.95 11.689.337 8.438.188 9.208-1.742 9.044-3.687-.313-1.684 7.813 3.419 13.875 2.384 2.83 4.953 5.996 5.709 7.032.787 1.08 1.64 7.427 1.994 14.843.693 14.49-.918 14.256-2.281-.331-.708-7.573-1.33-9.42-4.549-13.487-2.05-2.592-3.541-5.015-3.312-5.386.23-.371-.079-1.412-.684-2.313-.946-1.407-1.055-1.395-.772.087.496 2.602-.444 2.757-4.374.725-4.958-2.564-6.836-8.318-4.31-13.205 1.77-3.422 1.922-3.482 4.016-1.587 2.08 1.882 2.175 1.87 2.175-.295 0-3.074-2.244-9.39-4.42-12.44-2.12-2.972-4.279-3.223-6.947-.808-1.23 1.113-2.215 1.34-2.664.614-.954-1.544 4.545-5.055 6.65-4.247 2.47.948 3.295-1.29 1.482-4.02-1.367-2.059-1.356-3.03.081-7.026 1.616-4.493 1.58-4.732-1.198-7.728-1.576-1.7-3.164-4.584-3.528-6.408-.536-2.677-1.493-3.539-4.97-4.475-2.368-.638-5.306-1.915-6.528-2.84-1.222-.924-3.127-1.696-4.233-1.715-1.105-.02-2.308-.814-2.673-1.763-.364-.95-2.888-4.017-5.607-6.815C.76 80.8 0 79.317 0 75.46c0-4.465 2.812-8.653 7.918-11.795.942-.58 4.624-5.112 8.183-10.074 5.127-7.146 6.47-9.9 6.47-13.26 0-3.017.49-4.241 1.694-4.241 1.023 0 1.692-1.047 1.692-2.647 0-4.345 5.828-7.958 20.315-12.594 3.414-1.093 6.746-2.41 7.405-2.927.659-.518 5.99-2.792 11.848-5.054 5.858-2.263 14.25-6.089 18.649-8.503C88.573 1.95 93.652-.014 95.462 0c3.215.024 12.797 3.764 13.98 5.456 1.39 1.99 28.431 9.74 31.325 8.978.478-.126 3.917.166 7.642.648 6.44.835 7.132 1.245 14.176 8.404 4.073 4.139 9.031 10.572 11.018 14.297 3.285 6.156 15.763 20.879 17.695 20.879 1.687 0 9.5 6.969 10.167 9.068 1.148 3.617-4.93 13.143-13.375 20.96-4.285 3.968-8.24 7.215-8.786 7.215-2.296 0-11.453 6.664-13.322 9.696-1.958 3.175-1.952 3.427.199 7.71 1.495 2.978 2.041 5.781 1.668 8.565-.5 3.732-.32 4.097 1.852 3.728 4.855-.825 5.477.835 5.997 16.004.477 13.89.4 14.5-2.342 18.47-1.559 2.258-3.898 6.518-5.197 9.467-2.11 4.789-2.749 5.36-5.98 5.36h-3.617l-2.62 14.39c-1.442 7.914-3.4 16.58-4.351 19.257-1.407 3.958-1.564 7.437-.837 18.622.49 7.564.806 14.113.7 14.552-.105.44 1.558 1.127 3.697 1.528 2.14.401 5.386 2.16 7.215 3.907 1.829 1.748 6.293 4.098 9.92 5.224 3.627 1.125 7.249 2.673 8.049 3.44 1.998 1.914 15.41 8.239 17.472 8.239 3.7 0 4.78 3.431 4.541 14.42-.128 5.877-.536 10.989-.908 11.36-1.668 1.67-2.556-3.136-1.981-10.73.543-7.183.38-8.279-1.23-8.279-1.566 0-1.856 1.399-1.856 8.962 0 4.93-.482 9.26-1.072 9.625-1.899 1.173-3.442-3.585-3.442-10.613 0-5.332-.374-6.845-1.693-6.845-.953 0-1.766 1.109-1.86 2.539-.092 1.397-.27 3.301-.397 4.232s-.305 3.386-.397 5.455c-.268 6.039-2.912 3.66-3.553-3.198-.82-8.758-3.386-8.88-3.386-.16 0 6.457-1.38 9.473-3.357 7.341-.497-.535-1.216-3.98-1.597-7.653-.837-8.064-1.765-9.535-1.958-3.101-.078 2.586-.268 5.21-.424 5.83-.155.621-.345 1.637-.423 2.258-.205 1.641-3.505 1.386-3.647-.282-.067-.776-.022-5.093.1-9.593.141-5.28-.216-8.183-1.009-8.183-.675 0-1.228 1.453-1.228 3.229 0 7.01-1.452 13.7-2.975 13.7-1.184 0-1.54-2.312-1.54-10.036 0-8.111-.342-10.168-1.784-10.722-2.668-1.023-2.755-.94-2.527 2.419.116 1.707.117 6.277.004 10.157-.159 5.426-.597 7.054-1.9 7.054-.93 0-1.77-.635-1.864-1.411a29.415 29.415 0 00-.434-2.54c-.144-.62-.321-3.54-.393-6.489-.071-2.948-.612-5.36-1.202-5.36-.6 0-.973 3.59-.847 8.144.191 6.88-.073 8.206-1.698 8.537-1.358.278-2.24-.706-3.001-3.348-.953-3.305-1.09-2.827-1.18 4.103-.148 11.436-2.514 7.923-3.135-4.657-.321-6.492-1.048-10.524-2.088-11.584-.878-.894-1.876-1.346-2.217-1.005-.341.341-.763 5.643-.938 11.783-.231 8.14-.708 11.162-1.759 11.162-1.035 0-1.526-2.738-1.74-9.706-.163-5.338-.658-10.29-1.1-11.004-2.226-3.602-2.85-.133-2.51 13.939.346 14.293-.227 17.921-2.093 13.26zm64.397-32.471c-1.196-.905-2.451-1.37-2.79-1.032-.707.709 2.159 2.723 3.836 2.696.62-.01.15-.76-1.046-1.664zm-39.94-4.17c-.81-.81-1.336-.877-1.336-.17 0 .641.339 1.505.752 1.919.414.413 1.015.49 1.336.169.32-.32-.018-1.184-.752-1.919zm32.522.929c0-.244-.789-.746-1.752-1.116-1.004-.385-1.457-.196-1.062.444.663 1.072 2.814 1.586 2.814.672zm-87.173-6.915c-.22-3.823-.717-5.022-1.985-4.787-1.756.326-2.886 5.495-1.813 8.29.337.88 1.396 1.598 2.352 1.598 1.353 0 1.674-1.132 1.446-5.1zm34.112 4.255c-.01-.466-.51-1.608-1.111-2.54-.885-1.368-1.098-1.206-1.112.847-.01 1.397.49 2.54 1.112 2.54.62 0 1.12-.382 1.11-.847zm-40.612-3.668c0-2.351-3.683-6.772-5.643-6.772-.62 0-1.128 1.482-1.128 3.292 0 3.091.915 3.888 6.489 5.648.155.049.282-.927.282-2.168zm13.333-2.062c.26-2.646-.107-3.581-1.411-3.581-1.272 0-1.765 1.129-1.765 4.044 0 5.1 2.665 4.71 3.176-.463zm5.853 1.431c0-.968-.508-1.446-1.128-1.062-.621.384-1.13 1.175-1.13 1.76 0 .584.509 1.062 1.13 1.062.62 0 1.128-.792 1.128-1.76zm28.779-.498c-.384-.62-1.46-1.128-2.39-1.128-.931 0-1.38.508-.996 1.128.384.621 1.46 1.129 2.39 1.129.932 0 1.38-.508.996-1.129zm-56.993-2.164c0-2.95-1.156-5.736-2.378-5.736-1.164 0-1.38 6.024-.256 7.148 1.412 1.411 2.634.756 2.634-1.412zm-6.778-4.325c-.003-2.82-.932-5.363-2.78-7.618l-2.776-3.386-.04 6.434c-.032 4.965.41 6.695 1.934 7.583 3.184 1.854 3.668 1.456 3.662-3.013zm62.533 1.023c.874-1.413-.592-9.205-1.731-9.205-.54 0-.981 2.285-.981 5.078 0 4.638 1.235 6.517 2.712 4.127zm17.602-1.305c0-1.482-.752-2.257-2.19-2.257-2.817 0-4.204 2.217-2.186 3.494 2.598 1.646 4.376 1.143 4.376-1.237zM66.507 234.06c-2.453-2.956-3.306-1.634-3.306 5.118 0 5.22.44 6.963 1.975 7.827 1.762.991 2.011.44 2.316-5.118.198-3.615-.215-6.9-.985-7.827zm77.952 8.493c0-2.198-.572-3.32-1.693-3.32-1.815 0-2.061 1.335-.985 5.349.916 3.417 2.678 2.082 2.678-2.03zm-84.382-4.166c-.323-2.948-.947-5.614-1.385-5.925-.438-.31-1.086-1.326-1.44-2.257-.355-.93-.685 1.126-.734 4.57-.08 5.617 1.186 8.973 3.384 8.973.42 0 .5-2.412.175-5.36zm103.869-71.2c3.174-2.093 8.978-10.311 10.363-14.674.419-1.32.409-5.98-.022-10.356-.726-7.369-.905-7.784-2.421-5.62-1.377 1.966-1.412 3.215-.22 7.869 1.353 5.278 1.28 5.742-1.615 10.115-3.64 5.502-6.448 6.212-3.093.782 2.707-4.379 2.917-6.641.939-10.098-1.272-2.222-1.467-1.798-1.975 4.306-.466 5.586-.997 6.962-3.034 7.856-2.615 1.148-3.697 3.704-3.722 8.791-.019 3.65.62 3.786 4.8 1.03zm-.494-23.036c1.194-2.638 4.388-7 7.097-9.691 4.722-4.691 4.836-4.96 2.745-6.49-3.075-2.248-3.523-2.08-6.264 2.356-2.57 4.158-3.952 4.875-4.895 2.539-.313-.776-.61.169-.659 2.1-.049 1.93-.412 5.866-.806 8.746-.395 2.88-.419 5.236-.053 5.236.365 0 1.641-2.158 2.835-4.796zM36.545 120.11c.386-1.005.196-1.458-.443-1.062-.614.379-1.116 1.167-1.116 1.751 0 1.624.809 1.266 1.56-.69zm84.602-1.637c11.701-2.802 25.848-7.854 31.306-11.181 5.36-3.268 3.761-2.943-4.951 1.008-12.745 5.779-45.226 12.826-46.174 10.019-.176-.52-2.795-1.196-5.821-1.502-3.026-.305-6.267-1.191-7.203-1.968-1.474-1.223-1.343-1.498.975-2.045 2.784-.657 3.816-3.532 5.156-14.36.326-2.639 1.05-4.797 1.608-4.797s1.015-.508 1.015-1.129c0-.62-2.031-1.129-4.514-1.129-4.486 0-5.804 1.29-3.104 3.037.876.567-.515 1.127-3.668 1.478-3.91.434-5.078 1.027-5.078 2.577 0 1.107-.508 2.376-1.129 2.821-.62.445-1.129 1.57-1.129 2.502 0 1.243-1.55 1.783-5.829 2.03-4.803.279-6.233-.095-8.126-2.127-2.045-2.195-2.954-2.37-8.278-1.592-3.29.481-7.34 1.005-9.001 1.164-1.661.158-3.665.687-4.452 1.173-1.957 1.21 5.541 3.819 8.84 3.076 1.373-.309 5.69.448 9.593 1.682 3.903 1.234 9.575 2.595 12.604 3.024 6.537.927 10.68 2.574 13.44 5.344 1.94 1.948 1.875 2.025-1.693 1.987-10.844-.115-30.145-5.36-39.582-10.756-5.128-2.932-6.452-3.296-6.452-1.774 0 2.474 27.5 11.887 41.194 14.1 7.474 1.207 30.663-.319 40.453-2.662zm-81.31-7.333c1.038-2.018.962-2.093-.716-.709-1.033.852-1.838 2.63-1.789 3.95.061 1.65.286 1.871.717.709.345-.931 1.15-2.709 1.789-3.95zm97.086-3.916c-.878-3.675-.533-3.48-4.371-2.46-2.27.603-3.45 1.71-3.707 3.479-.208 1.426-1.35 2.848-2.54 3.159-1.188.31-2.16.93-2.16 1.376 0 .445 3.028.02 6.73-.944 6.331-1.65 6.69-1.923 6.048-4.61zm-29.424 1.376c.292-2.327.072-4.818-.49-5.535-1.654-2.112.169-7.161 2.586-7.161 1.174 0 2.135-.508 2.135-1.129 0-.62 1.65-1.164 3.668-1.208 7.414-.16-.572-2.016-9.03-2.098-7.48-.073-10.468 1.058-6.66 2.52 1.837.705 1.595 11.665-.3 13.56-.672.671-1.221 2.135-1.221 3.252 0 1.608.915 2.032 4.39 2.032 4.228 0 4.411-.158 4.922-4.233zm-70.256-3.023c0-3.021-2.97-6.677-4.605-5.667-1.447.895-1.293 3.515.362 6.166 1.928 3.086 4.243 2.814 4.243-.499zm126.401-1.209c.773-.93 1.102-1.693.73-1.693-.37 0-.19-1.27.4-2.821 1.688-4.441-1.924-3.263-4.399 1.434-2.146 4.076.43 6.503 3.27 3.08zM46.631 96.516c-1.305-2.736-2.33-3.565-3.904-3.154-3.11.813-3.522 2.16-.631 2.062 1.883-.063 2.568.65 2.834 2.958.236 2.045.863 2.846 1.911 2.443 1.305-.5 1.27-1.204-.21-4.31zm110.518 1.082c-.315-1.647-.015-2.822.721-2.822 2.517 0 1.175-1.794-2.333-3.118-4.175-1.576-3.8-1.793-4.652 2.69-.547 2.88-.217 3.738 1.813 4.72 3.993 1.928 5.035 1.584 4.451-1.47zm-100.72.138c0-1.814-3.67-8.603-4.65-8.603-.74 0-.901.792-.404 1.975.456 1.087 1.078 3.118 1.38 4.515.304 1.396 1.254 2.539 2.113 2.539s1.561-.192 1.561-.426zm89.922-2.75c-1.132-.224-1.816-.998-1.52-1.72.297-.72.871-2.134 1.277-3.14.47-1.167.042-2.097-1.182-2.566-2.324-.892-2.233-.997-3.107 3.592-.6 3.145-.322 3.857 1.813 4.664 1.386.524 3.027.643 3.648.265.62-.378.203-.87-.93-1.095zm-85.408-.143c0-.584-.549-1.401-1.22-1.816-.67-.415-.915-1.968-.542-3.453.506-2.016.213-2.698-1.158-2.698-1.215 0-1.602.608-1.146 1.798.38.989.997 3.02 1.372 4.514.654 2.605 2.694 3.858 2.694 1.655zm79.001-3.453c0-1.862.127-3.724.282-4.138.156-.413-.352-.964-1.128-1.222-.817-.273-1.41.485-1.41 1.8 0 1.249-.758 3.028-1.684 3.953-1.275 1.276-1.343 1.82-.282 2.25 3.18 1.284 4.222.632 4.222-2.643zm31.357 2.432c2.015-1.278.463-4.689-2.134-4.689-1.527 0-2.137.806-2.137 2.822 0 2.85 1.612 3.554 4.27 1.867zm-84.457-3.354l7.28-.77.056-3.95c.052-3.618.365-3.98 3.725-4.304 3.286-.317 3.667-.05 3.667 2.576 0 2.006-.8 3.225-2.539 3.869-1.826.676.312 1.14 7.618 1.653 5.587.393 12.443 1.027 15.236 1.41 2.793.382 4.812.413 4.486.068-.493-.521-10.408-2.542-16.92-3.448-4.334-.603-4.79-2.066-1.514-4.864l3.226-2.756-15.235.642c-19.305.813-24.02 1.563-23.205 3.69.34.883-.12 3.033-1.023 4.777l-1.64 3.17 4.752-.496c2.613-.273 8.027-.844 12.03-1.267zm-23.948-7.48c6.727-2.58 22.326-5.127 36.137-5.902 6.983-.392 12.697-1.143 12.697-1.668 0-2.458-22.564-1.242-35.682 1.922-11.062 2.668-19.619 5.603-19.619 6.73 0 .95 2.068.604 6.467-1.082zm69.36.86c-.815-.326-1.788-.286-2.163.09-.375.374.291.64 1.48.592 1.316-.054 1.583-.322.683-.682zm-109.684-.784c0-.234-.89-1.123-1.975-1.975-1.79-1.404-1.83-1.364-.426.426 1.474 1.88 2.4 2.478 2.4 1.55zm104.04-.345c-.814-.326-1.787-.285-2.162.09s.291.641 1.481.592c1.315-.054 1.582-.321.682-.682zm-90.94-2.332c2.07-2.728 2.07-11.568 0-11.568-2.084 0-2.943 2.498-2.943 8.556 0 5.414.63 6.059 2.943 3.012zm82.526 1.193c-1.099-.286-2.622-.268-3.386.042-.764.309.134.543 1.996.52 1.862-.023 2.488-.276 1.39-.562zm63.413-2.604c1.267-2.66 1.244-2.696-.411-.63-.966 1.204-1.755 2.686-1.755 3.291 0 1.434.52.794 2.166-2.66zM10.755 71.922c.76-6.23.068-7.828-2.347-5.42-.59.589-.895 3.941-.679 7.45.479 7.766 1.953 6.777 3.026-2.03zm6.08-2.624c.167-7.572-.112-9.627-1.256-9.244-1.078.36-1.414 3.034-1.256 9.99.256 11.283.125 10.332 1.323 9.592.536-.332 1.071-4.984 1.19-10.338zm-12.34 4.689c.925-4.107.11-5.18-2-2.629-1.1 1.33-.55 8.307.566 7.19.287-.287.932-2.34 1.433-4.561zm154.07 3.86c-.383-.62-1.302-1.12-2.04-1.11-.808.01-.67.453.348 1.11 2.168 1.402 2.559 1.402 1.693 0zm-84.938-2.172c10.523-2.79 27.48-3.903 37.458-2.458 4.795.694 8.505.73 9.593.094 1.366-.8.997-1.054-1.613-1.106-2.852-.058-3.074-.25-1.41-1.22 1.086-.632 1.975-1.886 1.975-2.787 0-1.257-1.637-1.633-7.054-1.62-13.21.028-16.62 3.185-3.883 3.594 3.843.123-.631.54-9.942.925-16.204.671-18.687.978-27.65 3.418-3.812 1.037-8.21 3.28-6.502 3.315.458.01 4.521-.96 9.028-2.155zm-9.286-.655c4.856-2.511 16.796-5.033 24.673-5.211 3.803-.086 6.916-.614 6.916-1.173 0-4.71-26.97.146-36.648 6.599-2.004 1.335-2.026 1.484-.226 1.484 1.1 0 3.478-.765 5.285-1.699zm-21.455-4.575c0-4.085-1.681-5.27-2.708-1.908-.493 1.611-.373 3.859.365 6.838.047.192.594.035 1.215-.349.62-.384 1.128-2.445 1.128-4.58zm107.713 2.36c-2.545-1.925-3.883-2.16-3.883-.683 0 .575.888 1.278 1.975 1.562 3.697.966 4.101.78 1.908-.88zm-80.627-4.828c6.212-2.131 6.558-2.41 4.544-3.654-1.048-.648-2.642-.244-4.634 1.174-1.67 1.19-5.38 3.167-8.245 4.395-2.864 1.228-5.208 2.511-5.208 2.852 0 .34 1.905-.2 4.232-1.202 2.328-1.002 6.518-2.606 9.311-3.565zm-20.839 1.906c.983-1.59-.355-6.707-1.754-6.707-.609 0-1.107 1.777-1.107 3.95 0 3.845 1.372 5.167 2.861 2.757zm133.697-9.6c0-3.922-.44-7.403-.978-7.736-1.039-.642-2.407 7.175-2.407 13.746 0 3.366.243 3.729 1.693 2.526 1.177-.978 1.692-3.574 1.692-8.536zm5.643 7.333c0-1.282.489-3.244 1.085-4.359.836-1.562.448-2.626-1.693-4.636l-2.777-2.61v5.183c0 5.7.829 8.753 2.377 8.753.555 0 1.008-1.049 1.008-2.33zM22.13 64.593c1.128-10.888 1.232-15.036.391-15.556-1.638-1.012-3.026 6.518-2.46 13.345.556 6.705 1.499 7.713 2.069 2.211zm102.84 3.444c-1.098-.286-2.622-.268-3.386.042-.764.309.135.543 1.997.52 1.862-.023 2.487-.276 1.389-.562zM55.301 63.74c0-3.768-1.367-5.176-2.79-2.873-.892 1.443.515 6.823 1.783 6.823.554 0 1.007-1.777 1.007-3.95zm139.944 2.324c0-.894-.508-1.94-1.129-2.324-.62-.383-1.128-.455-1.128-.159 0 .297-.309 1.342-.685 2.324-.45 1.172-.062 1.785 1.128 1.785.998 0 1.814-.732 1.814-1.626zm-130.36-.618c.396-.64-.057-.829-1.061-.444-1.956.75-2.313 1.56-.69 1.56.584 0 1.372-.502 1.752-1.116zm44.758-2.723c4.23.451 6.601.287 6.601-.458 0-.639.31-1.97.69-2.96.496-1.292.2-1.61-1.052-1.13-1.486.571-1.794-1.017-2.1-10.82-.365-11.655.855-16.933 1.631-7.06l.424 5.388.204-5.859c.111-3.222-.305-6.172-.926-6.556-.62-.383-1.128-2.952-1.128-5.709 0-6.715-2.043-6.428-2.478.349-.275 4.294-.849 5.582-2.883 6.475-3.138 1.376-3.229 2.392-.282 3.163 1.913.5 3.39 4.187 1.677 4.187-1.052 0-5.612-2.8-6.432-3.95-.443-.62-1.452-1.129-2.242-1.129s-1.6-.844-1.798-1.876c-.3-1.563.363-1.779 3.982-1.294 3.053.41 4.761.078 5.753-1.117 1.175-1.415.855-2.095-1.914-4.067-3.99-2.84-5.329-2.96-6.252-.555-.489 1.275-1.508 1.609-3.437 1.125-1.508-.379-3.057-.179-3.442.444-1.151 1.864-2.621 1.291-3.459-1.346-.765-2.413-.874-2.38-4.09 1.218-1.817 2.034-3.108 4.292-2.869 5.019.68 2.063 5.15 2.233 7.112.27 2.29-2.288 7.254-2.342 7.254-.078 0 1.053-1.066 1.693-2.822 1.693-1.552 0-2.821.444-2.821.988 0 1.312-6.986 4.656-8.183 3.916-.516-.319-.642-1.51-.282-2.647.361-1.137.128-2.394-.518-2.793-.646-.4-1.174-2.665-1.174-5.035 0-2.454-.73-4.915-1.693-5.715-1.465-1.215-1.699-.664-1.735 4.094-.023 3.025-.245 12.24-.494 20.477l-.453 14.978 7.152-.733c5.578-.571 7.71-.34 9.696 1.05 2.352 1.648 2.758 1.615 5.363-.434 2.363-1.859 3.886-2.103 9.42-1.513zm-17.139-2.416c-.75-.905-2.538-1.645-3.972-1.645-3.273 0-4.45-3.892-4.008-13.261.218-4.618 2.375-2.635 2.456 2.257.066 3.995 1.701 10.63 2.155 8.746.867-3.595.738-10.988-.212-12.132-1.863-2.246-.636-2.68 7.57-2.68 6.901 0 10.731.963 7.9 1.987-.635.23-.956 3.173-.733 6.748.307 4.942.058 6.228-1.13 5.83-1-.335-1.522-2.401-1.522-6.033 0-4.455-.4-5.603-2.066-5.93-1.804-.353-2.03.29-1.778 5.056.39 7.377.824 8.283 3.965 8.283 2.811 0 3.75 2.007 1.29 2.76-4.958 1.515-8.665 1.52-9.915.014zm2.483-8.979c-.208-4.036-.843-7.338-1.41-7.338-1.176 0-1.432 12.768-.28 13.92 1.71 1.71 2.05.39 1.69-6.582zm-14.53-3.106c.001-9.523.155-10.57.867-5.925 1.202 7.843 1.255 17.493.096 17.493-.53 0-.965-5.205-.963-11.568zm25.63 7.618c0-.931.508-1.693 1.128-1.693.621 0 1.137-1.904 1.146-4.232.01-2.328.51-4.994 1.112-5.925.766-1.186 1.099.59 1.11 5.925.016 6.871-.203 7.618-2.24 7.618-1.253 0-2.256-.752-2.256-1.693zm-45.33 3.798c-.208-1.468-.879-2.67-1.491-2.67-1.405 0-2.12 3.507-1.202 5.898 1.02 2.658 3.162.09 2.693-3.228zm117.345-3.068c.147-3.724-.253-7.092-.888-7.485-.746-.461-1.155 2.128-1.155 7.32 0 9.642 1.663 9.777 2.043.165zm-5.558-4.74c-.286-11.587-1.3-15.083-2.555-8.81-1.63 8.151-.16 20.156 2.467 20.156.202 0 .242-5.106.088-11.346zM67.08 58.285c-.039-1.655-.207-6.437-.374-10.627-.296-7.44-.34-7.539-1.853-4.232-2.594 5.665-1.829 19.244 1.03 18.291.697-.232 1.236-1.776 1.197-3.432zm-37.737-5.161c0-2.913-.635-5.98-1.41-6.817-1.13-1.216-1.13-1.36 0-.723 1.063.6 1.41-.944 1.41-6.267 0-5.52-.298-6.766-1.363-5.701-.84.84-1.526 6.119-1.788 13.77-.375 10.962-.216 12.326 1.363 11.72 1.28-.491 1.788-2.19 1.788-5.982zm43.04 3.563c.226-1.707.157-5.897-.154-9.311-.451-4.969-.73-5.644-1.395-3.386-1.17 3.972-1.066 15.8.139 15.8.55 0 1.185-1.396 1.41-3.103zm94.548-16.15c.058-4.294-.493-8.212-1.312-9.331-1.151-1.576-1.368.715-1.181 12.48.125 7.926.32 14.665.432 14.976.51 1.406 1.972-11.462 2.061-18.124zm-32.63 10.296c0-3.457-.616-5.95-1.693-6.843-1.472-1.222-1.692-.53-1.692 5.317 0 3.697.324 7.046.721 7.443 1.599 1.599 2.664-.768 2.664-5.917zm12.415 5.128c0-.244-.788-.746-1.752-1.116-1.004-.385-1.457-.196-1.062.444.663 1.072 2.814 1.586 2.814.672zm-19.408-10.303c-.278-5.29-1.103-10.216-1.834-10.947-1.02-1.02-1.33 1.216-1.33 9.618 0 9.353.267 10.947 1.834 10.947 1.59 0 1.767-1.284 1.33-9.618zm32.766-16.69c-.792-3.605-2.09-7.096-2.884-7.755-1.162-.964-1.446 1.617-1.446 13.154 0 13.078.226 14.67 2.54 17.913l2.539 3.56.345-10.157c.19-5.587-.303-13.108-1.094-16.714zM139.21 51.29c-.895-2.333-1.523-2.058-1.523.667 0 1.278.486 2.023 1.08 1.656.593-.366.793-1.412.443-2.323zm-79.395-1.657c0-1.862-.508-3.386-1.129-3.386-1.255 0-1.557 4.838-.376 6.02 1.275 1.274 1.505.872 1.505-2.634zM35.557 31.826c-1.279-6.904-2.828-2.42-2.828 8.187 0 7.443.416 10.7 1.41 11.035 1.606.54 2.595-12.866 1.418-19.222zm6.2 15.483c0-.584-.507-1.062-1.128-1.062-.62 0-1.129.792-1.129 1.76 0 .967.508 1.445 1.129 1.062.62-.384 1.129-1.176 1.129-1.76zm110.584-3.601c-.014-2.054-.226-2.215-1.11-.847-1.415 2.188-1.415 3.386 0 3.386.62 0 1.12-1.143 1.11-2.54zM41.45 34.872c-.6-6.62-1.324-8.812-2.515-7.62-1.015 1.015.856 14.48 2.012 14.48.692 0 .886-2.639.503-6.86zm5.951-.947c0-7.719-.741-10.327-2.721-9.567-.973.373-1.267 2.527-.954 6.982.539 7.681.968 9.264 2.511 9.264.669 0 1.164-2.843 1.164-6.679zm99.957-3.965c-.413-10.63-.963-13.056-2.965-13.056-1.877 0-1.274 18.381.695 21.192.966 1.38 1.965 2.508 2.22 2.508.254 0 .277-4.79.05-10.644zm-6.39.701c.203-8.408-1.089-14.883-2.97-14.888-1.297-.004-.33 20.625 1.044 22.281.649.782 1.3 1.422 1.447 1.422.147 0 .363-3.967.48-8.815zm11.392-2.471c0-6.772-.452-11.286-1.129-11.286s-1.129 4.514-1.129 11.286c0 6.771.452 11.286 1.13 11.286.676 0 1.128-4.515 1.128-11.286zm-32.04-3.95c-.388-14.823-1.818-14.918-1.818-.122 0 7.167.428 11.84 1.049 11.457.576-.356.922-5.458.769-11.336zm-66.857 9.002c1.04-2.713-.568-11.968-1.988-11.441-.689.255-1.062 1.162-.83 2.016.232.853.486 3.71.564 6.348.145 4.894 1.071 6.158 2.254 3.077zm80.84-9.566c0-7.274-.33-9.03-1.694-9.03-1.338 0-1.692 1.606-1.692 7.675 0 6.446 1.155 10.383 3.047 10.383.186 0 .338-4.063.338-9.028zm-74.979 2.83c.864-4.603-.043-7.73-2.048-7.062-.776.258-1.283.808-1.128 1.222.155.414.282 2.784.282 5.267 0 5.56 1.889 5.934 2.894.572zm18.62-5.088c.582 0 1.058-2.539 1.058-5.643 0-5.61-1.01-6.76-4.173-4.749-.89.567-.993 1.425-.3 2.522.58.915 1.142 4.71 1.25 8.435.117 4.002.384 5.271.653 3.103.25-2.017.931-3.668 1.513-3.668zm5.847-4.232c-.31-5.12-1.025-9.31-1.587-9.31-.937 0-.6 6.017.877 15.633.978 6.372 1.304 3.475.71-6.323zm43.931 2.722c-.241-3.033-1.049-5.349-1.991-5.71-1.254-.481-1.586.811-1.586 6.167 0 6.124.191 6.673 1.991 5.71 1.559-.834 1.903-2.175 1.586-6.167zm-62.263.88c0-2.833-.497-3.884-1.834-3.884-1.452 0-1.687.734-1.129 3.527.388 1.94.706 4.001.706 4.58 0 .58.507.741 1.128.357.62-.383 1.129-2.445 1.129-4.58zm30.054-2.082c-.38-3.164-.696-8.164-.701-11.113-.008-4.167-.414-5.36-1.824-5.36-1.19 0-1.578.613-1.128 1.785.377.981.685 6.298.685 11.814 0 8.785.227 9.943 1.83 9.328 1.49-.572 1.7-1.77 1.138-6.454zm12.449-1.99c-.116-5.87-.66-9.377-1.497-9.656-2.139-.712-2.591 15.675-.482 17.462.916.776 1.776 1.41 1.912 1.41.136 0 .166-4.147.067-9.217zm-35.732 1.21c0-5.178-.168-5.526-2.155-4.462-1.197.64-1.98 2.038-1.76 3.143 1.386 6.993 1.84 8.218 2.82 7.612.602-.372 1.095-3.204 1.095-6.293zm16.929-4.54c0-5.733-.412-8.775-1.129-8.332-.62.384-1.128 4.76-1.128 9.726 0 5.732.412 8.774 1.128 8.331.621-.383 1.129-4.76 1.129-9.726zm12.577-.207c.27-6.817-.027-9.042-1.317-9.858-.917-.58-1.924-1.062-2.238-1.071-.445-.014.063 10.177 1.037 20.805.062.677.48.677 1.134 0 .57-.59 1.192-5.034 1.384-9.876zm13.38 1.145c0-3.54-.37-4.287-1.975-3.983-1.373.26-2.08 1.641-2.321 4.532-.3 3.6-.035 4.134 1.975 3.983 1.912-.144 2.321-.944 2.321-4.532zm92.358 276.543c-.517-9.637.492-20.336 1.964-20.819.823-.27 1.197 4.143 1.165 13.738-.035 10.196-.425 14.135-1.4 14.135-.864 0-1.486-2.54-1.729-7.054zM6.278 280.41c-.789-4.206-.043-6.653 1.7-5.576 1.341.83 1.385 9.545.048 9.545-.552 0-1.338-1.786-1.748-3.97zm93.725-44.081c-.954-2.487.094-3.535 1.814-1.814.946.946.985 1.686.131 2.54-.854.853-1.42.642-1.945-.726zm-11.526-13.355c-.356-.928-.298-2.253.13-2.945.427-.692-.163-2.012-1.311-2.934-1.953-1.568-1.906-1.62.733-.798 4.907 1.526 15.04 1.247 20.571-.567 5.104-1.674 8.688-1.106 5.49.87-.918.568-1.336 2.228-1.05 4.171l.475 3.229-8.335-.202c-4.584-.111-9.085-.49-10.003-.843-.917-.352-2.655-.112-3.86.533-1.683.9-2.343.781-2.84-.514zm5.76-15.327c-3.548-.644-2.36-.854 5.549-.98 5.534-.088 9.851.029 9.592.26-1.12 1-11.01 1.47-15.141.72zm-28.78-2.195c0-.58.532-2.452 1.18-4.158.65-1.707 1.345-5.2 1.547-7.765.571-7.245 9.05-19.751 13.391-19.751 1.642 0 1.976.489 1.351 1.975-1.74 4.14-1.88 7.136-.424 9.035.83 1.083.13.74-1.556-.763-1.686-1.503-3.26-2.518-3.499-2.257-.912.998-3.934 16.177-3.395 17.05.777 1.256 6.921 1.163 7.712-.117.352-.57 3.01-1.035 5.906-1.035 3.564 0 4.747.33 3.66 1.018-.884.56-2.395 1.025-3.357 1.034-3.37.033-4.61 2.49-2.467 4.892 1.896 2.126 1.868 2.166-.862 1.237-1.552-.528-4.559-.983-6.682-1.01-2.123-.027-4.07-.678-4.326-1.447-.697-2.089-2.524-1.685-2.615.578-.068 1.69-.22 1.65-1.062-.283-.956-2.193-1.006-2.185-1.746.283-.745 2.486-2.755 3.568-2.755 1.484zm46.273-.066c0-.534.852-1.135 1.894-1.336 1.753-.337 1.747-.512-.08-2.34-1.332-1.331-3.88-2.013-7.82-2.091l-5.844-.117 4.394-1.162c3.893-1.03 14.883 0 21.87 2.051 2.334.685-2.5 4.772-5.555 4.698-1.459-.035-4.049.236-5.756.602-1.707.367-3.103.23-3.103-.305zm20.911-3.974c-.39-1.853-1.253-5.215-1.919-7.471-1.837-6.225-.589-7.556 2.413-2.573 2.717 4.512 3.121 8.22 1.26 11.546-.866 1.547-1.168 1.288-1.754-1.502zM95.93 188.42c-1.552-1.222-4.279-2.34-6.06-2.482-3.961-.318-5.112-2.705-2.297-4.764 1.788-1.307 2.458-1.23 4.71.54 3.63 2.857 8.98 3.883 11.094 2.129.941-.782 2.52-3.239 3.51-5.46 1.493-3.358 1.886-3.661 2.326-1.795.291 1.235 1.484 2.914 2.651 3.732 2.054 1.438 3.12 4.364 1.145 3.144-1.343-.83-4.836 3.213-4.43 5.126.559 2.636-9.255 2.504-12.65-.17zm20.598-6.347c-.801-.331-1.155-1.636-.82-3.028.388-1.618-.404-3.591-2.342-5.831-1.61-1.862-2.608-2.751-2.216-1.975.392.776.182 1.41-.467 1.41-1.952 0-4.503-7.592-3.88-11.544.321-2.03.07-5.944-.558-8.698-.906-3.973-.775-5.838.63-9.029l1.771-4.022.983 4.343c.54 2.39 1.996 5.632 3.235 7.206 1.238 1.575 2.251 3.302 2.251 3.84 0 1.196-3.014 1.303-3.67.13-.26-.466-.303-.17-.095.656.209.827.38 3.744.38 6.483 0 4.395.603 5.591 5.14 10.193 3.455 3.506 5.027 6 4.796 7.613-.344 2.402-2.493 3.345-5.138 2.253zm-7.502-17.018c-.375-.375-.642.292-.593 1.481.054 1.315.322 1.582.682.682.326-.815.286-1.788-.09-2.163zm-20.77 9.794c-1.717-2.749-1.742-4.774-.052-4.21 1.634.544 3.408 5.141 2.259 5.852-.47.29-1.463-.45-2.208-1.642zm-.227-25.06c0-.93.768-2.33 1.707-3.109 1.326-1.1 1.412-1.772.387-3.007-1.01-1.217-1.002-1.91.033-2.944 1.783-1.784 3.654.93 3.244 4.706-.343 3.167-5.37 7.242-5.37 4.354zm41.758-.625c0-1.328.993-2.468 2.49-2.86 3.16-.826 3.966-.025 2.428 2.417-1.785 2.835-4.918 3.117-4.918.443zm-63.8-.061c-.29-.292-.53-1.207-.53-2.035 0-1.908 3.149-1.869 6.673.084 2.703 1.497 2.693 1.511-1.446 1.994-2.291.268-4.405.248-4.696-.043zm-8.899-6.52c-.594-1.55-.429-1.62 1.008-.427 1.959 1.626 2.162 2.279.711 2.279-.554 0-1.328-.834-1.719-1.853zm6.113-.503c4.456-3.64 9.182-5.293 14.671-5.131 2.793.083 5.079.478 5.079.878s.967 1.797 2.15 3.104c2.624 2.9.222 3.34-2.884.529-1.89-1.71-2.093-1.71-2.75 0-.78 2.034-8.366 2.685-8.366.718 0-1.669-2.177-1.37-4.112.564-.93.931-2.799 1.682-4.151 1.668-2.41-.025-2.403-.07.363-2.33zm50.155.626c1.205-.911 2.586-1.657 3.068-1.657.483 0 .554-.843.16-1.872-.645-1.679.125-1.795 7.43-1.116 4.483.417 9.322 1.525 10.753 2.463 1.431.938 3.435 1.385 4.454.994 1.018-.39 1.852-.178 1.852.472 0 2.269-2.13 2.469-6.105.573-3.744-1.785-4.138-1.786-6.092-.018-2.598 2.352-5.15 2.413-7.013.169-1.28-1.543-1.626-1.543-3.33 0-1.046.946-3.132 1.705-4.635 1.685-2.646-.035-2.663-.088-.542-1.693zm-81.299-3.068l-2.15-2.539 2.54 2.15c2.386 2.02 3.053 2.929 2.15 2.929-.214 0-1.357-1.143-2.54-2.54zm20.496-3.246c3.023-5.846 7.228-8.81 12.556-8.85 2.601-.02 5.044.472 5.427 1.093.384.62 2.065 1.144 3.735 1.164 1.67.02 4.023.782 5.228 1.693 1.464 1.107 2.435 1.261 2.928.463.477-.772 2.289-.279 5.13 1.398 3.103 1.83 3.835 2.7 2.492 2.958-1.046.202-3.007-.225-4.358-.948-3.027-1.62-13.09-1.6-17.389.035-1.75.665-5.361.953-8.025.64-4.11-.484-4.95-.233-5.55 1.656-.39 1.225-1.448 2.227-2.353 2.227-1.404 0-1.378-.519.179-3.529zm7.856-5.282c-.347-.348-1.258 0-2.024.77-1.106 1.115-.976 1.245.632.632 1.113-.424 1.74-1.055 1.392-1.402zm40.117 4.398c-2.47-1.899-2.62-2.478-1.526-5.9l1.213-3.795.116 3.624c.068 2.16 1.112 4.553 2.585 5.925 3.087 2.876 1.306 2.985-2.388.146zm9.797 1.365c-1.59-.405-1.739-.935-.77-2.746.66-1.234 1.798-2.045 2.528-1.801.73.243 4.123-.674 7.541-2.037 6.908-2.756 16.937-4.437 16.937-2.84 0 .566 1.142 1.203 2.539 1.416 1.545.236 2.392 1.04 2.163 2.054-.207.916.01 1.28.48.809.472-.471 2.017.233 3.434 1.564l2.577 2.421-.693-4.273c-.499-3.073-.229-4.62.962-5.514.911-.683 1.99-2.13 2.397-3.216.913-2.434 3.07-2.607 3.07-.246 0 .95-.723 3.458-1.606 5.572-.884 2.114-1.344 4.845-1.024 6.069.55 2.104.127 2.194-7.705 1.638-12.495-.885-21.902-.488-29.166 1.232-.931.22-2.58.175-3.664-.102z"/></svg>